<svg id="Layer_1" data-name="Layer 1" xmlns="http://www.w3.org/2000/svg" viewBox="0 0 508 508"><defs><style>.cls-1{font-size:14.51px;font-family:ArialMT, Arial;}.cls-2{fill:#324a5e;}.cls-3{fill:#f0f0f0;}.cls-4{fill:#d80027;}</style></defs><title>aus</title><text class="cls-1" transform="translate(196.05 177.43)"> </text><path class="cls-2" d="M506.87,254c0,140.24-113.76,254-254,254S-1,394.36-1,254L253,0C393.23,0,506.87,113.76,506.87,254Z" transform="translate(1.13)"/><path class="cls-3" d="M252.87,0Z" transform="translate(1.13)"/><path class="cls-3" d="M252.27,254H253v-.73A3.84,3.84,0,0,1,252.27,254Z" transform="translate(1.13)"/><path class="cls-3" d="M252.87,132.62V.12h0c-140.24,0-254,113.76-254,254h132.5V179.53L206,254.12h46.19l.72-.72V207.21l-74.59-74.59Z" transform="translate(1.13)"/><path class="cls-4" d="M127.38,33.13A254.32,254.32,0,0,0,32,128.51V254H98.25V99.38H252.87V33.13Z" transform="translate(1.13)"/><path class="cls-4" d="M252.87,222.81l-90.19-90.19H131.49L253,254.12h0C252.87,254,252.87,232.48,252.87,222.81Z" transform="translate(1.13)"/><polygon class="cls-3" points="153.29 298.25 167.2 327.38 198.63 320.13 184.61 349.14 209.87 369.21 178.32 376.35 178.44 408.62 153.29 388.44 128.03 408.62 128.15 376.35 96.59 369.21 121.98 349.14 107.84 320.13 139.27 327.38 153.29 298.25"/><polygon class="cls-3" points="380.33 353.38 387.35 368 403.06 364.38 396.05 378.88 408.62 388.92 392.91 392.43 392.91 408.62 380.33 398.47 367.76 408.62 367.76 392.43 352.05 388.92 364.74 378.88 357.61 364.38 373.32 368 380.33 353.38"/><polygon class="cls-3" points="315.54 198.87 322.43 213.38 338.26 209.75 331.13 224.26 343.82 234.29 328.11 237.92 328.11 254 315.54 243.97 302.84 254 302.96 237.92 287.25 234.29 299.82 224.26 292.81 209.75 308.52 213.38 315.54 198.87"/><polygon class="cls-3" points="380.33 110.5 387.35 125 403.06 121.38 396.05 136.01 408.62 146.04 392.91 149.55 392.91 165.75 380.33 155.59 367.76 165.75 367.76 149.55 352.05 146.04 364.62 136.01 357.61 121.38 373.32 125 380.33 110.5"/><polygon class="cls-3" points="436.91 176.75 443.93 191.26 459.64 187.63 452.63 202.26 465.32 212.29 449.49 215.8 449.61 232 436.91 221.84 424.34 232 424.46 215.8 408.62 212.29 421.32 202.26 414.31 187.63 430.02 191.26 436.91 176.75"/><polygon class="cls-3" points="396.54 254 401.98 270.93 419.75 270.93 405.36 281.32 410.8 298.25 396.54 287.73 382.15 298.25 387.59 281.32 373.2 270.93 390.97 270.93 396.54 254"/><text class="cls-1" transform="translate(196.05 177.43)"> </text></svg>