<svg id="Layer_1" data-name="Layer 1" xmlns="http://www.w3.org/2000/svg" viewBox="0 0 508 508"><defs><style>.cls-1{fill:#324a5e;}.cls-2{fill:#2b3b4e;}.cls-3{fill:#75bcf2;}.cls-4{fill:#2e9aec;}.cls-5{fill:#1171ba;}</style></defs><title>clients</title><circle class="cls-1" cx="254" cy="254" r="254"/><path class="cls-2" d="M465.2,218.4v52.8a6,6,0,0,1-7.2,6,6.37,6.37,0,0,1-5.2-5.6l-5.2-54a3.53,3.53,0,0,0-3.6-3.2,3.59,3.59,0,0,0-3.6,3.6V377.2a9.42,9.42,0,0,1-7.6,9.2c-4.8.4-9.2-2.8-9.6-7.6l-8.4-83.6a4,4,0,0,0-4-3.6,3.59,3.59,0,0,0-3.6,3.6L400.8,378a8.75,8.75,0,0,1-8.8,8h-1.6a8.88,8.88,0,0,1-8.8-8.8V218a3.59,3.59,0,0,0-3.6-3.6,3,3,0,0,0-3.2,2.4,4.3,4.3,0,0,1,4-4,4,4,0,0,1,4,4l6.4,65.2a7.27,7.27,0,0,0,6.4,6.8,7.42,7.42,0,0,0,8.8-7.2V218a65.31,65.31,0,0,0-19.2-46.4,51.33,51.33,0,0,1,24.8-7.2A54,54,0,0,1,465.2,218.4Z"/><circle class="cls-2" cx="411.2" cy="131.2" r="25.2"/><path class="cls-2" d="M126.4,216.8c0-.8.4-1.2.4-1.6-.4.4-.4.8-.4,1.6l.4,158.8a9.42,9.42,0,0,1-7.6,9.2c-4.8.4-9.2-2.8-9.6-7.6l-8.4-83.6a4,4,0,0,0-4-3.6,3.59,3.59,0,0,0-3.6,3.6l-6.8,83.2a8.75,8.75,0,0,1-8.8,8H76.4a8.88,8.88,0,0,1-8.8-8.8V216.4a3.59,3.59,0,0,0-3.6-3.6,3.79,3.79,0,0,0-3.6,3.2l-5.2,54a6.08,6.08,0,0,1-6,5.6,5.89,5.89,0,0,1-6-6V218c0-29.6,23.2-54.4,52.4-55.2a54.4,54.4,0,0,1,30,8,68.1,68.1,0,0,0-20,48v62.4a7.59,7.59,0,0,0,7.6,7.6h0c4,0,7.2-2.8,7.2-6.8Z"/><path class="cls-2" d="M134.4,217.2v11.6l-1.2-12.4a3.39,3.39,0,0,0-2.8-3.2A3.78,3.78,0,0,1,134.4,217.2Z"/><circle class="cls-2" cx="96.8" cy="130" r="25.2"/><path class="cls-3" d="M298,212.8a5.69,5.69,0,0,1,2.4.8c-.4,0-1.2-.4-1.6-.4a4,4,0,0,0-4,4L293.6,230V217.2A4.44,4.44,0,0,1,298,212.8Z"/><path class="cls-3" d="M404,218v63.6a7.42,7.42,0,0,1-8.8,7.2c-3.6-.4-6-3.6-6.4-6.8l-6-65.2a4.3,4.3,0,0,0-4-4,4.44,4.44,0,0,0-4.4,4.4v192c0,5.2-4,10.4-9.2,10.8-6,.8-10.8-3.6-11.6-9.2L343.6,310a4.36,4.36,0,0,0-4.4-4,4.44,4.44,0,0,0-4.4,4.4L326,410.8a10.76,10.76,0,0,1-10.4,9.6h-2A10.59,10.59,0,0,1,303.2,410V222l6,65.2a9,9,0,0,0,6.8,7.6,7.92,7.92,0,0,0,9.2-8V218a70.79,70.79,0,0,0-24-53.2A65.09,65.09,0,0,1,404,218Z"/><circle class="cls-3" cx="338.8" cy="112.4" r="30.4"/><path class="cls-4" d="M184,219.2v67.6a8,8,0,0,0,8,8h0a8.18,8.18,0,0,0,8-7.2l6-66V409.2c0,5.2-4,10.4-9.2,10.8-5.6.8-10.8-3.6-11.6-9.2L174.8,310a4.66,4.66,0,0,0-4.4-4,4.11,4.11,0,0,0-4.4,4l-8.4,100.8a10.76,10.76,0,0,1-10.4,9.6h-2A10.59,10.59,0,0,1,134.8,410V217.2a4.44,4.44,0,0,0-4.4-4.4,4,4,0,0,0-4,4L120,282a7.36,7.36,0,0,1-7.2,6.8h0a7.59,7.59,0,0,1-7.6-7.6v-62c0-35.6,28-65.6,63.2-66.4a64.52,64.52,0,0,1,39.6,12A72.75,72.75,0,0,0,184,219.2Z"/><path class="cls-4" d="M130.4,213.2a4.2,4.2,0,0,0-3.6,2,3,3,0,0,1,3.6-2Z"/><path class="cls-4" d="M215.6,217.2V230l-1.2-13.2a4.3,4.3,0,0,0-4-4,2.4,2.4,0,0,0-1.6.4,5.69,5.69,0,0,1,2.4-.8A5.11,5.11,0,0,1,215.6,217.2Z"/><circle class="cls-4" cx="170.4" cy="112.4" r="30.4"/><path class="cls-5" d="M252.8,147.2c-38.4,1.2-68.8,33.6-68.8,72.4v67.6a8,8,0,0,0,8,8h0a8.18,8.18,0,0,0,8-7.2l6.8-70.8a4.36,4.36,0,0,1,4.4-4,4.44,4.44,0,0,1,4.4,4.4V426.8A11.18,11.18,0,0,0,226.8,438h2.4a11,11,0,0,0,11.2-10.4L249.6,318a5.11,5.11,0,0,1,4.8-4.4c2.4,0,4.8,2,4.8,4.4l11.2,110c.8,6,6.4,10.8,12.4,10s10-6,10-12V217.2a4.44,4.44,0,0,1,4.4-4.4,4.11,4.11,0,0,1,4.4,4l6.8,70.8a9,9,0,0,0,6.8,7.6,7.92,7.92,0,0,0,9.2-8V218C325.6,178,292.8,146,252.8,147.2Z"/><path class="cls-5" d="M208.8,213.2a4.2,4.2,0,0,0-2,3.6l-.8,4.8v-4.4A4.82,4.82,0,0,1,208.8,213.2Z"/><circle class="cls-5" cx="254.8" cy="103.6" r="33.2"/></svg>