<svg id="Layer_1" data-name="Layer 1" xmlns="http://www.w3.org/2000/svg" viewBox="0 0 508 508"><defs><style>.cls-1{fill:#324d62;}.cls-2{fill:#e6e9ee;}.cls-3{fill:#fff;}.cls-4{fill:#ff7058;}.cls-5{fill:#4cdbc4;}.cls-6{fill:#84dbff;}.cls-7{fill:#ffd05b;}</style></defs><title>structure</title><circle class="cls-1" cx="254" cy="254" r="254"/><path class="cls-2" d="M221.2,314.8v22a20.2,20.2,0,0,0-8,0v-18H160.4v18a20.2,20.2,0,0,0-8,0v-18H99.6v18a13.61,13.61,0,0,0-4-.4,13.61,13.61,0,0,0-4,.4v-22a4,4,0,0,1,4-4h56.8V278.4a20.2,20.2,0,0,0,8,0v32.4h56.8A4.3,4.3,0,0,1,221.2,314.8Z"/><path class="cls-2" d="M355.6,209.2V232a20.2,20.2,0,0,0-8,0V212.4H160.4V232a20.2,20.2,0,0,0-8,0V209.2a4.62,4.62,0,0,1,4.8-4.8H250V157.2h8v47.6h92.8A4.31,4.31,0,0,1,355.6,209.2Z"/><path class="cls-2" d="M416.4,314.8v22a20.2,20.2,0,0,0-8,0v-18H355.6v18a20.2,20.2,0,0,0-8,0v-18H294.8v18a20.2,20.2,0,0,0-8,0v-22a4,4,0,0,1,4-4h56.8V278.4a20.2,20.2,0,0,0,8,0v32.4h56.8A4.3,4.3,0,0,1,416.4,314.8Z"/><circle class="cls-3" cx="254" cy="109.2" r="48"/><circle class="cls-4" cx="254" cy="109.2" r="26.4"/><circle class="cls-5" cx="351.6" cy="255.2" r="23.6"/><circle class="cls-6" cx="156.4" cy="255.2" r="23.6"/><circle class="cls-4" cx="217.2" cy="357.6" r="21.2"/><circle class="cls-4" cx="156.4" cy="357.6" r="21.2"/><circle class="cls-4" cx="95.6" cy="357.6" r="21.2"/><circle class="cls-7" cx="412.4" cy="357.6" r="21.2"/><circle class="cls-7" cx="351.6" cy="357.6" r="21.2"/><circle class="cls-7" cx="290.8" cy="357.6" r="21.2"/></svg>