<svg id="Layer_1" data-name="Layer 1" xmlns="http://www.w3.org/2000/svg" viewBox="0 0 741.8 740.3">
  <defs>
    <style>
      .cls-1 {
        fill: #2caaca;
      }

      .cls-2 {
        fill: #e6e6e6;
      }

      .cls-3 {
        fill: #fcbc85;
      }

      .cls-4 {
        fill: #fdcc9b;
      }

      .cls-5 {
        fill: #fff;
      }

      .cls-6 {
        fill: none;
        stroke: #fcbc85;
        stroke-linecap: round;
        stroke-miterlimit: 10;
        stroke-width: 7px;
      }

      .cls-7 {
        fill: #ff7400;
      }

      .cls-8 {
        fill: #9e8069;
      }

      .cls-9 {
        opacity: 0.16;
      }

      .cls-10 {
        opacity: 0.04;
      }
    </style>
  </defs>
  <title>profileIcon</title>
  <rect id="av-background" class="cls-1" width="741.8" height="737.26"/>
  <path id="av-hair" class="cls-2" d="M627.63,323.39c19.38-18.53,49.25-32,76.56-26.31C692.07,281,678,262.26,662.27,249.81,640.11,232.3,608.1,231.1,581,231.68a96.23,96.23,0,0,1,65.76-22.59c-33.43-27.77-77.35-34.94-118.1-19.82,10.56-16.61-4.49-26.15,17.63-42.92C511,133.2,472.74,138.25,441.6,159a154.84,154.84,0,0,1,10-18.22c-20.37,8-36.35,16.83-47.4,36.2-.13-10.53-4.36-19.46-3.48-30.67-15.63,10.77-25.46,36.59-30.77,67.17-5.38-30.31-15.27-56-30.84-67.17A84.44,84.44,0,0,1,335.61,177c-11.05-19.37-27-28.25-47.39-36.2a154.77,154.77,0,0,1,10,18.22c-31-21.47-69.56-25.14-104.73-12.63,21.52,16.31,8.67,25.27,17.64,42.92-40.66-15.62-84.68-7.7-118.11,19.82a96.24,96.24,0,0,1,65.77,22.59c-60.27-1.3-88.06,18.17-123.15,65.4,27.3-5.69,57.17,7.78,76.56,26.31-44.57,1.34-86.38,59.36-63.44,102.27,15.4-18.24,31.62-28.34,56.6-27.47-20,24.36-22.23,55.87-5.22,83.38,8.8-32.11,41.78-45,72.7-47-11.35,28.21-10.38,55.35-1.78,84.7C220.38,466.11,329.92,432,362,364.82c3.2-6.69,5.9-16.13,8-27.36,2.08,11.33,4.75,20.78,7.89,27.36C409.47,431,518.44,467.89,568.77,519.27,577,491,579,461.7,567,434.57c30.91,2,63.89,14.89,72.7,47,16.65-26.93,14.47-59-5.22-83.38,25.24-.84,41.27,9.31,56.59,27.47C714,382.75,672.19,324.73,627.63,323.39Z"/>
  <g id="av-ears">
    <circle class="cls-3" cx="195.74" cy="409.88" r="50.8"/>
    <circle class="cls-3" cx="540.95" cy="409.88" r="50.8"/>
  </g>
  <path id="av-head" class="cls-4" d="M269.69,633.13v7.74L151.6,735.22h426l-50.9-76.34a352,352,0,0,0-109.55-37.49V587.68l.62-.16c118.81-32.4,133.57-156.8,125.63-261.37C532.28,180,457.24,165.22,323.07,182.88c-130.4,17.17-147.46,112.57-130.85,233.67C203.37,497.88,250,566.36,319.81,587.72v33.47A345.66,345.66,0,0,0,269.69,633.13Z"/>
  <path id="av-shadow" class="cls-3" d="M358.81,594.64c8.26,3.18,21.22,7.57,33.26,9.2,19.71,2.65,25.06,1.71,25.06,1.71V587.68s-29.47,7.38-49.31,7.38C365,595.06,361.91,594.91,358.81,594.64Z"/>
  <path id="av-smile" class="cls-5" d="M292.2,500.15s28.11,28.29,77.7,28.29,77.18-28.29,77.18-28.29Z"/>
  <path id="av-mo" class="cls-2" d="M269.69,496.72c65,11.07,132.4,12.67,197.32,0a95.76,95.76,0,0,0-56-50.55c-23.74,30.58-61.28,29.28-85.88,0A93.13,93.13,0,0,0,269.69,496.72Z"/>
  <g id="av-eyes">
    <circle cx="303.63" cy="364.49" r="16.97"/>
    <circle cx="433.56" cy="364.49" r="16.97"/>
    <circle class="cls-5" cx="312.44" cy="358.32" r="5.37"/>
    <circle class="cls-5" cx="441.99" cy="358.32" r="5.37"/>
  </g>
  <g id="av-eyelids">
    <ellipse class="cls-4" cx="303.63" cy="328.83" rx="27.15" ry="18.18"/>
    <ellipse class="cls-4" cx="433.56" cy="328.83" rx="27.15" ry="18.18"/>
  </g>
  <g id="av-eyebrows">
    <path class="cls-2" d="M399.63,331c22.54.38,45,2.26,65.88,11.16C480.59,306.55,404.81,290.21,399.63,331Z"/>
    <path class="cls-2" d="M337.56,331c-22.55.38-45,2.26-65.88,11.16C256.59,306.55,332.37,290.21,337.56,331Z"/>
  </g>
  <g id="av-lines">
    <line class="cls-6" x1="286.66" y1="245.64" x2="450.53" y2="242.64"/>
    <line class="cls-6" x1="300.57" y1="261.39" x2="436.62" y2="258.9"/>
    <line class="cls-6" x1="299.8" y1="229.38" x2="435.84" y2="226.89"/>
  </g>
  <polygon id="av-undershirt" class="cls-5" points="321.84 740.3 281.88 630.17 367.56 638.63 455.23 630.17 413.19 740.3 321.84 740.3"/>
  <path id="av-tie" class="cls-7" d="M372.71,668.51a14,14,0,1,0-6.52,0l-16.48,68.75h39.48Z"/>
  <path id="av-collar" class="cls-2" d="M417.83,621s-22,17.25-49,17.33c-27-.08-49-17.33-49-17.33s-16.24,1.62-42,9.18h0s22.84,15.32,40.38,23.16A143.87,143.87,0,0,0,351,663.58l17.8-25,17.79,25a143.87,143.87,0,0,0,32.87-10.2c17.54-7.84,40.37-23.16,40.37-23.16h0C434.07,622.66,417.83,621,417.83,621Z"/>
  <g id="av-sweater">
    <path id="av-shirt" class="cls-8" d="M543.49,668.56C496.09,639,452.13,628,452.13,628s-14.31,29.21-37.26,46.73a104.72,104.72,0,0,1-46.07,20,104.74,104.74,0,0,1-46.08-20c-23-17.52-37.26-46.73-37.26-46.73s-44,11-91.35,40.57-57.51,68.7-57.51,68.7H601S590.88,698.16,543.49,668.56Z"/>
    <path id="av-shirtcollar" class="cls-9" d="M273,631.63s21.31,35.66,39.66,51,40.13,23.15,56.76,23.15,43.1-9.53,60.85-25.87,33.85-48.27,33.86-48.28h0L451.93,628s-14.31,29.21-37.26,46.73a104.74,104.74,0,0,1-46.08,20,104.72,104.72,0,0,1-46.07-20C299.57,657.2,285.26,628,285.26,628L273,631.63Z"/>
  </g>
  <rect id="av-shadow-2" data-name="av-shadow" class="cls-10" x="369.9" width="371.9" height="737.26"/>
</svg>
