<svg id="Layer_1" data-name="Layer 1" xmlns="http://www.w3.org/2000/svg" viewBox="0 0 361.06 20.9"><defs><style>.cls-1{fill:#fff;}.cls-2,.cls-3{fill:none;stroke:#000;stroke-miterlimit:10;}.cls-2{stroke-width:0.8px;}.cls-3{stroke-width:0.6px;}</style></defs><title>dijkstra.01</title><path class="cls-1" d="M137.61,70.05a10.05,10.05,0,1,0-10.05,10A10.05,10.05,0,0,0,137.61,70.05Z" transform="translate(-117.11 -59.6)"/><path class="cls-2" d="M137.61,70.05a10.05,10.05,0,1,0-10.05,10A10.05,10.05,0,0,0,137.61,70.05Z" transform="translate(-117.11 -59.6)"/><path d="M127.55,67.8c0-.54-.26-.7-.44-.7a.53.53,0,0,0-.49.48.35.35,0,0,0,.16.29,1.07,1.07,0,0,1,.34.82c0,.42-.6,2.69-1.77,2.69-.5,0-.73-.35-.73-.86a7.21,7.21,0,0,1,.57-2.11,1.23,1.23,0,0,0,.12-.5.79.79,0,0,0-.81-.81c-.93,0-1.31,1.44-1.31,1.53s.1.1.12.1.11,0,.16-.18c.29-1,.71-1.23,1-1.23.08,0,.25,0,.25.32a2.06,2.06,0,0,1-.17.69,6,6,0,0,0-.57,2,1.19,1.19,0,0,0,1.33,1.23c1.67,0,2.24-3.29,2.24-3.8" transform="translate(-117.11 -59.6)"/><path d="M129.7,72.93a.92.92,0,0,1-.9-.76,8,8,0,0,1-.09-1.51,6.38,6.38,0,0,1,.1-1.44.91.91,0,0,1,1.76-.06,5.85,5.85,0,0,1,.12,1.5,7.75,7.75,0,0,1-.09,1.48.92.92,0,0,1-.9.79m1.63-2.18a3.06,3.06,0,0,0-.42-1.82,1.44,1.44,0,0,0-1.21-.61c-1.63,0-1.63,1.92-1.63,2.43s0,2.38,1.63,2.38S131.33,71.25,131.33,70.75Z" transform="translate(-117.11 -59.6)"/><path class="cls-1" d="M222.65,70.05a10,10,0,1,0-10.05,10A10.05,10.05,0,0,0,222.65,70.05Z" transform="translate(-117.11 -59.6)"/><path class="cls-2" d="M222.65,70.05a10,10,0,1,0-10.05,10A10.05,10.05,0,0,0,222.65,70.05Z" transform="translate(-117.11 -59.6)"/><path d="M212.55,67.8c0-.54-.26-.7-.44-.7a.53.53,0,0,0-.49.48c0,.13.06.19.16.29a1.07,1.07,0,0,1,.34.82c0,.42-.6,2.69-1.77,2.69-.5,0-.73-.35-.73-.86a7.21,7.21,0,0,1,.57-2.11,1.23,1.23,0,0,0,.12-.5.79.79,0,0,0-.81-.81c-.93,0-1.31,1.44-1.31,1.53s.1.1.12.1.11,0,.16-.18c.29-1,.71-1.23,1-1.23.08,0,.25,0,.25.32a2.06,2.06,0,0,1-.17.69,6,6,0,0,0-.57,2,1.19,1.19,0,0,0,1.33,1.23c1.67,0,2.24-3.29,2.24-3.8" transform="translate(-117.11 -59.6)"/><path d="M215.15,68.52c0-.19,0-.2-.21-.2a1.88,1.88,0,0,1-1.37.45V69a2.42,2.42,0,0,0,1-.19v3.58c0,.24,0,.33-.71.33h-.26V73l1.25,0,1.25,0v-.25h-.26c-.71,0-.71-.09-.71-.33V68.52" transform="translate(-117.11 -59.6)"/><circle class="cls-1" cx="297.64" cy="70.05" r="10.05" transform="translate(-121.26 59.63) rotate(-22.5)"/><circle class="cls-2" cx="297.64" cy="70.05" r="10.05" transform="translate(-121.26 59.63) rotate(-22.5)"/><path d="M297.65,67.8c0-.54-.26-.7-.44-.7a.53.53,0,0,0-.49.48.35.35,0,0,0,.16.29,1.07,1.07,0,0,1,.34.82c0,.42-.6,2.69-1.77,2.69-.5,0-.73-.35-.73-.86a7.21,7.21,0,0,1,.57-2.11,1.23,1.23,0,0,0,.12-.5.79.79,0,0,0-.81-.81c-.93,0-1.31,1.44-1.31,1.53s.1.1.12.1.11,0,.16-.18c.28-1,.71-1.23,1-1.23.08,0,.25,0,.25.32a2.06,2.06,0,0,1-.17.69,6,6,0,0,0-.57,2,1.19,1.19,0,0,0,1.33,1.23c1.67,0,2.24-3.29,2.24-3.8" transform="translate(-117.11 -59.6)"/><path d="M301.35,71.71h-.24a1.61,1.61,0,0,1-.18.64,3.88,3.88,0,0,1-.7,0h-1.29c.74-.65,1-.85,1.4-1.18a2,2,0,0,0,1-1.52,1.48,1.48,0,0,0-1.65-1.37,1.36,1.36,0,0,0-1.46,1.26.36.36,0,0,0,.38.39.37.37,0,0,0,.37-.37c0-.13-.05-.37-.42-.37a1.12,1.12,0,0,1,1-.66,1.06,1.06,0,0,1,1.07,1.12A2.16,2.16,0,0,1,300,71l-1.7,1.68c-.07.06-.07.07-.07.27h2.9l.21-1.28" transform="translate(-117.11 -59.6)"/><path class="cls-1" d="M392.73,70.05a10.05,10.05,0,1,0-10.05,10A10.05,10.05,0,0,0,392.73,70.05Z" transform="translate(-117.11 -59.6)"/><path class="cls-2" d="M392.73,70.05a10.05,10.05,0,1,0-10.05,10A10.05,10.05,0,0,0,392.73,70.05Z" transform="translate(-117.11 -59.6)"/><path d="M382.65,67.8c0-.54-.26-.7-.44-.7a.53.53,0,0,0-.49.48.35.35,0,0,0,.16.29,1.07,1.07,0,0,1,.34.82c0,.42-.6,2.69-1.77,2.69-.5,0-.73-.35-.73-.86a7.21,7.21,0,0,1,.57-2.11,1.23,1.23,0,0,0,.12-.5.79.79,0,0,0-.81-.81c-.93,0-1.31,1.44-1.31,1.53s.1.1.12.1.11,0,.16-.18c.28-1,.71-1.23,1-1.23.08,0,.25,0,.25.32a2.06,2.06,0,0,1-.17.69,6,6,0,0,0-.57,2,1.19,1.19,0,0,0,1.33,1.23c1.67,0,2.24-3.29,2.24-3.8" transform="translate(-117.11 -59.6)"/><path d="M384.82,70.64c.55,0,.94.38.94,1.13s-.5,1.14-.91,1.14a1.54,1.54,0,0,1-1.2-.5.38.38,0,0,0,.41-.39.38.38,0,0,0-.39-.39.38.38,0,0,0-.39.41c0,.66.73,1.09,1.58,1.09a1.51,1.51,0,0,0,1.65-1.36,1.39,1.39,0,0,0-1.22-1.25,1.34,1.34,0,0,0,1-1.23c0-.55-.63-1-1.41-1s-1.38.38-1.38.94a.35.35,0,0,0,.36.38.35.35,0,0,0,.36-.36.36.36,0,0,0-.36-.37,1.33,1.33,0,0,1,1-.38.7.7,0,0,1,.76.76,1.31,1.31,0,0,1-.28.84.89.89,0,0,1-.78.3l-.22,0a.08.08,0,0,0-.07.09c0,.1.06.1.18.1h.38" transform="translate(-117.11 -59.6)"/><path class="cls-1" d="M477.77,70.05a10,10,0,1,0-10,10A10.05,10.05,0,0,0,477.77,70.05Z" transform="translate(-117.11 -59.6)"/><path class="cls-2" d="M477.77,70.05a10,10,0,1,0-10,10A10.05,10.05,0,0,0,477.77,70.05Z" transform="translate(-117.11 -59.6)"/><path d="M467.75,67.8c0-.54-.26-.7-.44-.7a.53.53,0,0,0-.49.48c0,.13.06.19.16.29a1.07,1.07,0,0,1,.34.82c0,.42-.6,2.69-1.77,2.69-.5,0-.73-.35-.73-.86a7,7,0,0,1,.58-2.11,1.4,1.4,0,0,0,.11-.5.78.78,0,0,0-.81-.81c-.93,0-1.31,1.44-1.31,1.53s.1.1.12.1.11,0,.16-.18c.28-1,.71-1.23,1-1.23.08,0,.25,0,.25.32a2.06,2.06,0,0,1-.17.69,6,6,0,0,0-.57,2,1.19,1.19,0,0,0,1.33,1.23c1.67,0,2.24-3.29,2.24-3.8" transform="translate(-117.11 -59.6)"/><path d="M470.29,69v2.57h-1.86Zm1.33,2.83v-.26h-.78V68.45c0-.15,0-.2-.16-.2s-.11,0-.18.1l-2.33,3.23v.26h2.07v.57c0,.24,0,.33-.57.33h-.19V73l1.06,0,1.06,0v-.25h-.19c-.57,0-.57-.09-.57-.33v-.57Z" transform="translate(-117.11 -59.6)"/><line class="cls-3" x1="20.9" y1="10.45" x2="84.04" y2="10.45"/><path d="M170.58,64.44h-2.42l2.42-3.7Zm-.06.31v.87c0,.35,0,.46-.75.46h-.21v.31c.4,0,.92,0,1.34,0s.94,0,1.35,0v-.31H172c-.74,0-.75-.11-.75-.46v-.87h1v-.31h-1V59.92c0-.2,0-.25-.16-.25s-.12,0-.2.11l-3.05,4.66v.31Z" transform="translate(-117.11 -59.6)"/><line class="cls-3" x1="105.94" y1="10.45" x2="169.08" y2="10.45"/><path d="M253.86,65.62l1-1c1.55-1.37,2.15-1.9,2.15-2.9a2,2,0,0,0-2.1-1.93,1.84,1.84,0,0,0-1.86,1.8.51.51,0,0,0,.52.56.52.52,0,0,0,.52-.53.5.5,0,0,0-.53-.51h-.13a1.44,1.44,0,0,1,1.34-1c.91,0,1.34.81,1.34,1.62a3.56,3.56,0,0,1-1.05,2.2L253.21,66c-.11.11-.11.13-.11.37h3.68l.28-1.73h-.25a3.29,3.29,0,0,1-.22.89,3.63,3.63,0,0,1-.94.07h-1.79" transform="translate(-117.11 -59.6)"/><line class="cls-3" x1="190.98" y1="10.45" x2="254.12" y2="10.45"/><path d="M340.62,60c0-.23,0-.26-.23-.26a2.44,2.44,0,0,1-1.81.64v.31a3,3,0,0,0,1.31-.26v5.15c0,.35,0,.47-.93.47h-.32v.31c.35,0,1.22,0,1.61,0s1.26,0,1.61,0v-.31h-.32c-.89,0-.92-.11-.92-.47V60" transform="translate(-117.11 -59.6)"/><line class="cls-3" x1="276.02" y1="10.45" x2="339.16" y2="10.45"/><path d="M425.68,64.44h-2.42l2.42-3.7Zm-.06.31v.87c0,.35,0,.46-.75.46h-.21v.31c.4,0,.92,0,1.34,0s.94,0,1.35,0v-.31h-.21c-.74,0-.75-.11-.75-.46v-.87h1v-.31h-1V59.92c0-.2,0-.25-.16-.25s-.12,0-.2.11l-3,4.66v.31Z" transform="translate(-117.11 -59.6)"/></svg>