<svg id="Layer_1" data-name="Layer 1" xmlns="http://www.w3.org/2000/svg" viewBox="0 0 492.96 104.11"><defs><style>.cls-1{fill:#f2f2eb;}.cls-2{fill:gray;}</style></defs><title>algo</title><rect class="cls-1" x="11.07" width="481.89" height="9.46"/><path class="cls-2" d="M50.31,63.48c0-.15,0-.15-.19-.15a1.59,1.59,0,0,1-1,.32H49v.23h.09a2.12,2.12,0,0,0,.73-.14v2.52c0,.15,0,.21-.53.21h-.25v.22c.27,0,.72,0,1,0s.75,0,1,0v-.22h-.25c-.53,0-.53-.06-.53-.21V63.48" transform="translate(-45.62 -60.03)"/><path d="M60.26,61.65c1.26,0,1.26.61,1.26,1.15s0,1.16-1.27,1.16H59.07V61.65h1.19m-1.14,2.69h1.43c1.43,0,2.24-.69,2.24-1.54s-.81-1.56-2.24-1.56H57.07v.41h.86v4.63h-.86v.41c.31,0,1.11,0,1.46,0s1.14,0,1.44,0v-.41h-.85Z" transform="translate(-45.62 -60.03)"/><path d="M65.21,65c0-.63.25-1.53,1-1.55a.57.57,0,0,0-.13.36.53.53,0,0,0,1,0c0-.44-.44-.69-.9-.69a1.23,1.23,0,0,0-1.12.85h0v-.85l-1.34.06v.41c.46,0,.52,0,.52.31v2.39h-.52v.41c.46,0,.54,0,1,0l1.08,0v-.41h-.65V65" transform="translate(-45.62 -60.03)"/><path d="M69.83,66.37c-1.09,0-1.09-.82-1.09-1.51s0-1.45,1.09-1.45,1.09.81,1.09,1.45,0,1.51-1.09,1.51M72,65a2.18,2.18,0,0,0-4.32,0c0,.94.7,1.79,2.16,1.79S72,65.9,72,65Z" transform="translate(-45.62 -60.03)"/><path d="M76.55,65.78c0-.15-.13-.15-.23-.15s-.17,0-.23.15a1,1,0,0,1-1,.59c-1.18,0-1.18-1.13-1.18-1.47s0-1.45,1.09-1.45a2.47,2.47,0,0,1,.5,0,.09.09,0,0,1,0,0,.58.58,0,0,0-.1.33.52.52,0,0,0,.53.53.51.51,0,0,0,.54-.54c0-.79-1.15-.79-1.47-.79a1.88,1.88,0,0,0-2.13,1.86,1.85,1.85,0,0,0,2.09,1.82A2.07,2.07,0,0,0,76,66.48a1.18,1.18,0,0,0,.55-.7" transform="translate(-45.62 -60.03)"/><path d="M78.24,64.7c0-.32,0-1.29,1-1.29s1,1,1,1.29H78.24m2.57.31c.17,0,.27,0,.27-.24a1.73,1.73,0,0,0-.48-1.25,1.92,1.92,0,0,0-1.34-.45,1.86,1.86,0,0,0-2.09,1.83c0,1,.8,1.85,2.21,1.85s1.7-.86,1.7-1-.17-.17-.22-.17-.17,0-.23.15a1.25,1.25,0,0,1-1.16.61c-1.17,0-1.21-.92-1.23-1.36Z" transform="translate(-45.62 -60.03)"/><path d="M84.84,65.81a1.33,1.33,0,0,1-1.11.6c-1,0-1-1-1-1.46s0-1.51,1.13-1.51a1.27,1.27,0,0,1,1,.49v1.88m-.47-4.57v.41c.47,0,.52,0,.52.31v1.49a2.13,2.13,0,0,0-3.26,1.48,1.83,1.83,0,0,0,2,1.82,1.89,1.89,0,0,0,1.18-.39v.39l1.5-.06v-.41c-.47,0-.53,0-.53-.31v-4.8Z" transform="translate(-45.62 -60.03)"/><path d="M90,63.17v.41c.47,0,.52,0,.52.31V65.4a1,1,0,0,1-1.06,1c-.65,0-.67-.18-.67-.59V63.11l-1.49.06v.41c.46,0,.52,0,.52.31v1.82c0,.89.75,1,1.53,1a1.4,1.4,0,0,0,1.22-.56v.56L92,66.69v-.41c-.47,0-.53,0-.53-.31V63.11L90,63.17" transform="translate(-45.62 -60.03)"/><path d="M94,65c0-.63.25-1.53,1-1.55a.57.57,0,0,0-.13.36.53.53,0,0,0,1,0c0-.44-.44-.69-.9-.69a1.23,1.23,0,0,0-1.12.85h0v-.85l-1.34.06v.41c.46,0,.52,0,.52.31v2.39h-.52v.41c.46,0,.54,0,1,0l1.08,0v-.41H94V65" transform="translate(-45.62 -60.03)"/><path d="M97.54,64.7c0-.32,0-1.29,1-1.29s1,1,1,1.29H97.54m2.57.31c.17,0,.27,0,.27-.24a1.73,1.73,0,0,0-.48-1.25,1.92,1.92,0,0,0-1.34-.45,1.86,1.86,0,0,0-2.09,1.83c0,1,.8,1.85,2.21,1.85s1.7-.86,1.7-1-.17-.17-.22-.17-.17,0-.23.15a1.25,1.25,0,0,1-1.16.61c-1.17,0-1.21-.92-1.23-1.36Z" transform="translate(-45.62 -60.03)"/><path d="M109.26,66.43c-.37,0-.38-.06-.38-.33V61.85c0-.27,0-.33.38-.33h.91a2,2,0,0,1,1.49.66,2.83,2.83,0,0,1,.51,1.84,2.66,2.66,0,0,1-.5,1.77,1.94,1.94,0,0,1-1.5.64h-.91m-1.89-5.17v.26h.17c.61,0,.63.09.63.39v4.14c0,.29,0,.38-.63.38h-.17v.26h3A2.62,2.62,0,0,0,113,64a2.68,2.68,0,0,0-2.58-2.77Z" transform="translate(-45.62 -60.03)"/><path d="M115,63.27v.27c.51,0,.58,0,.58.43v2.1c0,.36-.1.36-.61.36v.26c.31,0,.76,0,.88,0s.58,0,.86,0v-.26c-.52,0-.55,0-.55-.35V63.19l-1.16.08m1.19-1.47a.44.44,0,0,0-.44-.45.43.43,0,0,0-.44.44.44.44,0,0,0,.44.44A.44.44,0,0,0,116.15,61.8Z" transform="translate(-45.62 -60.03)"/><path d="M118.66,63.27v.27c.59,0,.66.05.66.44v3.09c0,.22,0,1-.58,1a1.23,1.23,0,0,1-.39-.07.38.38,0,0,0,.21-.34.36.36,0,0,0-.37-.38.37.37,0,0,0-.38.38c0,.41.45.63.94.63a1.18,1.18,0,0,0,1.16-1.25V63.19l-1.25.08m1.25-1.47a.45.45,0,0,0-.45-.45.44.44,0,0,0,0,.88A.44.44,0,0,0,119.91,61.8Z" transform="translate(-45.62 -60.03)"/><path d="M124.29,64.53,125,64a1.69,1.69,0,0,1,1.06-.46v-.26a5.46,5.46,0,0,1-.63,0l-.85,0v.26c.15,0,.18.11.18.16a.54.54,0,0,1-.22.35l-1.15.92V61.17l-1.18.09v.26c.54,0,.6.06.6.45v4.1c0,.36-.09.36-.6.36v.26c.31,0,.74,0,.87,0s.57,0,.88,0v-.26c-.5,0-.6,0-.6-.36V65.3l.54-.43s.23.28.36.43.24.32.37.48.28.37.28.49-.15.16-.25.16v.26c.34,0,.7,0,.84,0,.3,0,.46,0,.74,0v-.26a.77.77,0,0,1-.77-.41l-1.15-1.49" transform="translate(-45.62 -60.03)"/><path d="M130.43,63.35c0-.13,0-.2-.1-.2s-.07,0-.2.12-.08.08-.11.08l-.07,0a1.26,1.26,0,0,0-.71-.17c-1.12,0-1.36.6-1.36,1a.88.88,0,0,0,.31.65,2,2,0,0,0,1,.37c.37.07,1,.18,1,.72,0,.31-.2.68-.93.68a1.14,1.14,0,0,1-1.14-1c0-.11,0-.15-.13-.15s-.13.07-.13.22v1c0,.13,0,.21.1.21s.06,0,.2-.16l.17-.18a1.33,1.33,0,0,0,.93.34c1,0,1.36-.58,1.36-1.1s-.23-.94-1.17-1.12l-.54-.09c-.25-.06-.62-.23-.62-.54s.17-.57.93-.57a.82.82,0,0,1,.94.87.12.12,0,0,0,.12.09c.13,0,.13-.06.13-.21v-.75" transform="translate(-45.62 -60.03)"/><path d="M133.58,63.53h1.18v-.26h-1.18V61.8h-.25c0,.73-.33,1.48-1.07,1.5v.23H133V65.7a1,1,0,0,0,1.08,1.07c.54,0,.85-.48.85-1.07v-.45h-.24v.43c0,.55-.25.84-.55.84-.53,0-.53-.68-.53-.81V63.53" transform="translate(-45.62 -60.03)"/><path d="M138,64.88c0-.6.25-1.46,1-1.47a.28.28,0,0,0-.13.28.36.36,0,0,0,.71,0,.54.54,0,0,0-.6-.5,1.14,1.14,0,0,0-1,.83h0v-.83l-1.13.08v.27c.54,0,.6.05.6.44v2.09c0,.36-.09.36-.6.36v.26c.31,0,.74,0,.94,0l1,0v-.26h-.16c-.58,0-.6-.09-.6-.38V64.88" transform="translate(-45.62 -60.03)"/><path d="M143.73,65.57a1,1,0,0,1-1,1,.71.71,0,0,1-.76-.66c0-.53.49-1.07,1.73-1.11v.79m.61-1.25c0-.78-.76-1.17-1.48-1.17s-1.25.25-1.25.77a.37.37,0,0,0,.38.39.37.37,0,0,0,.08-.74,1.5,1.5,0,0,1,.77-.2.88.88,0,0,1,.89,1v.25a4.37,4.37,0,0,0-1.55.27c-.7.31-.83.77-.83,1,0,.68.8.89,1.35.89a1.23,1.23,0,0,0,1.11-.64.64.64,0,0,0,.6.6.72.72,0,0,0,.75-.76v-.43h-.24V66c0,.33-.12.46-.29.46s-.29-.37-.29-.46Z" transform="translate(-45.62 -60.03)"/><path d="M150,68.68c.06,0,.15,0,.15-.1s0,0-.11-.14a5,5,0,0,1-1.36-3.74A4.75,4.75,0,0,1,150,61c.11-.11.11-.11.11-.16a.1.1,0,0,0-.11-.09c-.12,0-.52.41-.58.48a5,5,0,0,0-1.29,3.49,4.8,4.8,0,0,0,1.83,4" transform="translate(-45.62 -60.03)"/><path d="M155.23,63.35c0-.13,0-.2-.1-.2s-.07,0-.2.12-.08.08-.11.08l-.07,0a1.26,1.26,0,0,0-.71-.17c-1.12,0-1.36.6-1.36,1a.88.88,0,0,0,.31.65,2,2,0,0,0,1,.37c.37.07,1,.18,1,.72,0,.31-.2.68-.93.68a1.14,1.14,0,0,1-1.14-1c0-.11,0-.15-.14-.15s-.12.07-.12.22v1c0,.13,0,.21.1.21s.06,0,.2-.16l.17-.18a1.33,1.33,0,0,0,.93.34c1,0,1.36-.58,1.36-1.1s-.23-.94-1.17-1.12l-.54-.09c-.25-.06-.62-.23-.62-.54s.17-.57.93-.57a.82.82,0,0,1,.94.87.12.12,0,0,0,.12.09c.13,0,.13-.06.13-.21v-.75" transform="translate(-45.62 -60.03)"/><path d="M160,64.7a5.55,5.55,0,0,0-.62-2.6,3.49,3.49,0,0,0-1.26-1.37.09.09,0,0,0-.1.09s0,0,.09.15a5,5,0,0,1,1.37,3.73,4.82,4.82,0,0,1-1.35,3.73c-.11.1-.11.11-.11.15a.09.09,0,0,0,.1.1c.13,0,.52-.41.59-.48A5,5,0,0,0,160,64.7" transform="translate(-45.62 -60.03)"/><rect class="cls-1" x="11.07" y="9.47" width="481.89" height="9.46"/><path class="cls-2" d="M51.27,75.12h-.21c0,.09-.07.4-.15.46a3,3,0,0,1-.54,0h-1l1-.74c.46-.31.88-.6.88-1.13s-.61-1-1.33-1-1.18.39-1.18.89a.29.29,0,0,0,.29.31.29.29,0,0,0,.3-.3.3.3,0,0,0-.29-.3.9.9,0,0,1,.77-.38.82.82,0,0,1,.9.79,1.46,1.46,0,0,1-.68,1.07l-1.23,1s-.06,0-.06.08v.15H51.1l.17-1" transform="translate(-45.62 -60.03)"/><path d="M81.05,75.18c0-.15-.13-.15-.23-.15s-.17,0-.23.15a1,1,0,0,1-1,.59c-1.18,0-1.18-1.13-1.18-1.47s0-1.45,1.09-1.45a1.88,1.88,0,0,1,.5.05l0,0a.58.58,0,0,0-.1.33.52.52,0,0,0,.53.53.51.51,0,0,0,.54-.54c0-.79-1.15-.79-1.47-.79a1.88,1.88,0,0,0-2.13,1.86,1.85,1.85,0,0,0,2.09,1.82,2.07,2.07,0,0,0,1.08-.27,1.18,1.18,0,0,0,.55-.7" transform="translate(-45.62 -60.03)"/><path d="M85.74,73.68c0-1-.6-1.17-1.31-1.17a1.69,1.69,0,0,0-1.44.73V70.57l-1.44.07v.41c.46,0,.52,0,.52.31v4.32h-.52v.41c.42,0,.7,0,1,0s.58,0,1,0v-.41H83v-1.6a1.24,1.24,0,0,1,1.27-1.24c.28,0,.46.13.46.76v2.08h-.52v.41c.43,0,.7,0,1,0s.58,0,1,0v-.41h-.53v-2" transform="translate(-45.62 -60.03)"/><path d="M89.52,75c0,.81-1,.81-1,.81a.7.7,0,0,1-.78-.63c0-.55.74-.89,1.77-.92V75m1-1.26c0-.72-.57-1.27-1.87-1.27-.39,0-1.52,0-1.52.79a.54.54,0,1,0,1.07,0,.59.59,0,0,0-.17-.41,3.87,3.87,0,0,1,.61,0,.82.82,0,0,1,.91.92V74c-1.19,0-2.74.27-2.74,1.24,0,.68.76,1,1.63,1a1.39,1.39,0,0,0,1.26-.6c0,.24.09.54.86.54H91c.15,0,.27,0,.27-.21s-.13-.2-.24-.2c-.49,0-.49-.08-.49-.26Z" transform="translate(-45.62 -60.03)"/><path d="M95.94,73.68c0-1-.6-1.17-1.31-1.17a1.66,1.66,0,0,0-1.49.81h0v-.81l-1.39.06V73c.46,0,.52,0,.52.31v2.39h-.52v.41c.42,0,.7,0,1,0s.58,0,1,0v-.41h-.52v-1.6a1.24,1.24,0,0,1,1.27-1.24c.28,0,.46.13.46.76v2.08h-.52v.41c.43,0,.7,0,1,0s.58,0,1,0v-.41h-.53v-2" transform="translate(-45.62 -60.03)"/><path d="M99.35,76.22c.24,0,1.2,0,1.2.46,0,.27-.33.67-1.42.67s-1.42-.38-1.42-.68c0-.45.52-.45.64-.45h1m-.49-1.68c-.75,0-.75-.52-.75-.84s0-.85.75-.85.76.52.76.84S99.62,74.54,98.86,74.54Zm-.38.86c-.24,0-.39,0-.51-.1a.53.53,0,0,1-.18-.39.44.44,0,0,1,.06-.23,2.39,2.39,0,0,0,1,.2c1.29,0,1.68-.7,1.68-1.18a1.05,1.05,0,0,0-.32-.75,1.46,1.46,0,0,1,.48-.15.55.55,0,0,0,0,.17.37.37,0,0,0,.38.38.37.37,0,0,0,.38-.38.53.53,0,0,0-.56-.52,1.58,1.58,0,0,0-.9.31,2.12,2.12,0,0,0-1.11-.25c-1.29,0-1.68.7-1.68,1.18a1,1,0,0,0,.42.83,1.1,1.1,0,0,0-.26.7,1.06,1.06,0,0,0,.32.77c-.33.08-.69.31-.69.69s.47,1,2.16,1c1.5,0,2.16-.48,2.16-1a1.11,1.11,0,0,0-.76-1.08,4.5,4.5,0,0,0-1.64-.17Z" transform="translate(-45.62 -60.03)"/><path d="M102.94,74.1c0-.32,0-1.29,1-1.29s1,1,1,1.29h-2.06m2.57.31c.17,0,.27,0,.27-.24a1.73,1.73,0,0,0-.48-1.25,1.92,1.92,0,0,0-1.34-.45,1.86,1.86,0,0,0-2.09,1.83c0,1,.8,1.85,2.21,1.85s1.7-.86,1.7-1-.17-.17-.22-.17-.17,0-.23.15a1.25,1.25,0,0,1-1.16.61c-1.17,0-1.21-.92-1.23-1.36Z" transform="translate(-45.62 -60.03)"/><path d="M109.55,78.08c.06,0,.16,0,.16-.1s0,0-.12-.14a5.06,5.06,0,0,1-1.36-3.74,4.75,4.75,0,0,1,1.36-3.72c.11-.11.12-.11.12-.16a.11.11,0,0,0-.12-.09c-.12,0-.52.41-.58.48a5,5,0,0,0-1.29,3.49,4.8,4.8,0,0,0,1.83,4" transform="translate(-45.62 -60.03)"/><path d="M114.53,72.75c0-.13,0-.2-.1-.2s-.07,0-.2.12-.08.08-.11.08l-.07,0a1.26,1.26,0,0,0-.71-.17c-1.12,0-1.36.6-1.36,1a.88.88,0,0,0,.31.65,2,2,0,0,0,1,.37c.37.07,1,.18,1,.72,0,.31-.2.68-.93.68a1.14,1.14,0,0,1-1.14-1c0-.11,0-.15-.13-.15s-.13.07-.13.22v1c0,.13,0,.21.1.21s.06,0,.2-.16l.17-.18a1.33,1.33,0,0,0,.93.34c1,0,1.36-.58,1.36-1.1s-.23-.94-1.17-1.12l-.54-.09c-.25-.06-.62-.23-.62-.54s.17-.58.93-.58a.83.83,0,0,1,.94.88.12.12,0,0,0,.12.09c.13,0,.13-.06.13-.21v-.75" transform="translate(-45.62 -60.03)"/><path d="M119,76a1.85,1.85,0,0,1-.61,1.45s0,0,0,.09a.14.14,0,0,0,.11.12,1.86,1.86,0,0,0,.77-1.57c0-.44-.16-.85-.54-.85a.44.44,0,1,0,0,.88A.51.51,0,0,0,119,76" transform="translate(-45.62 -60.03)"/><path d="M123.31,76c-.27,0-.82-.12-1-1a9.9,9.9,0,0,1-.09-1.61,8.24,8.24,0,0,1,.09-1.54,1,1,0,0,1,1-.89,1,1,0,0,1,1,.86,7.73,7.73,0,0,1,.1,1.57,8.82,8.82,0,0,1-.1,1.63c-.16.83-.71.94-1,.94m1.78-2.47a3.82,3.82,0,0,0-.35-1.88,1.56,1.56,0,0,0-1.43-.87,1.58,1.58,0,0,0-1.48,1,4.27,4.27,0,0,0-.3,1.79,3.88,3.88,0,0,0,.4,2,1.64,1.64,0,0,0,2.84-.17A4.05,4.05,0,0,0,125.09,73.56Z" transform="translate(-45.62 -60.03)"/><path d="M129.26,74.1a5.55,5.55,0,0,0-.62-2.6,3.49,3.49,0,0,0-1.26-1.37.09.09,0,0,0-.1.09s0,0,.09.15a5,5,0,0,1,1.37,3.73,4.82,4.82,0,0,1-1.35,3.73c-.11.1-.11.11-.11.15a.09.09,0,0,0,.1.1c.13,0,.53-.41.59-.48a5,5,0,0,0,1.29-3.5" transform="translate(-45.62 -60.03)"/><rect class="cls-1" x="11.07" y="18.93" width="481.89" height="9.46"/><path class="cls-2" d="M50,83.92a.73.73,0,0,1,.78.79.72.72,0,0,1-.77.78,1.49,1.49,0,0,1-.91-.26.29.29,0,0,0,.26-.31.31.31,0,0,0-.62,0c0,.53.6.77,1.28.77.83,0,1.35-.5,1.35-1s-.37-.76-.95-.89c.61-.2.77-.58.77-.87s-.52-.72-1.15-.72-1.12.26-1.12.72a.28.28,0,0,0,.29.29.27.27,0,0,0,.28-.28.28.28,0,0,0-.24-.29,1.2,1.2,0,0,1,.77-.25c.37,0,.64.19.64.53a.77.77,0,0,1-.73.78l-.29,0c-.05,0-.11,0-.11.09s0,.08.14.08H50" transform="translate(-45.62 -60.03)"/><path d="M83.28,82.64c0-.13.07-.17.52-.17v-.41a4.17,4.17,0,0,1-.65,0,6.35,6.35,0,0,1-.75,0v.41a1,1,0,0,1,.42.07.81.81,0,0,1,0,.11l-.87,2L81,82.47h.41v-.41c-.36,0-.73,0-.89,0s-.58,0-.81,0v.41h.45c0,.06.09.21.13.29s0,.08,0,.12l-.69,1.59-.86-2h.4v-.41c-.46,0-.59,0-1,0-.17,0-.62,0-.9,0v.41h.46l1.26,2.94a.31.31,0,0,0,.34.22c.24,0,.27-.07.34-.24l.89-2,.89,2c.07.17.11.24.34.24a.32.32,0,0,0,.35-.22l1.19-2.77" transform="translate(-45.62 -60.03)"/><path d="M88.74,83.18c0-1-.6-1.17-1.31-1.17a1.69,1.69,0,0,0-1.44.73V80.07l-1.44.07v.41c.46,0,.52,0,.52.31v4.32h-.52v.41c.42,0,.7,0,1,0s.58,0,1,0v-.41H86v-1.6a1.24,1.24,0,0,1,1.27-1.24c.28,0,.46.13.46.76v2.08h-.52v.41c.43,0,.7,0,1,0s.58,0,1,0v-.41h-.53v-2" transform="translate(-45.62 -60.03)"/><path d="M90,82.07v.41c.45,0,.5,0,.5.31v2.39H90v.41c.46,0,.55,0,1,0s.56,0,.94,0v-.41h-.46V82L90,82.07m1.5-1.37a.64.64,0,0,0-.64-.63.64.64,0,0,0,0,1.27A.64.64,0,0,0,91.49,80.7Z" transform="translate(-45.62 -60.03)"/><path d="M94.12,80.07l-1.45.07v.41c.47,0,.52,0,.52.31v4.32h-.52v.41c.46,0,.54,0,1,0s.53,0,1,0v-.41h-.52V80.07" transform="translate(-45.62 -60.03)"/><path d="M96.24,83.6c0-.32,0-1.29,1-1.29s1,1,1,1.29H96.24m2.57.31c.17,0,.27,0,.27-.24a1.73,1.73,0,0,0-.48-1.25A1.92,1.92,0,0,0,97.26,82a1.86,1.86,0,0,0-2.09,1.83c0,1,.8,1.85,2.21,1.85s1.7-.86,1.7-1-.17-.17-.22-.17-.17,0-.23.15a1.25,1.25,0,0,1-1.16.61c-1.17,0-1.21-.92-1.23-1.36Z" transform="translate(-45.62 -60.03)"/><path d="M107.69,85.36a1.71,1.71,0,0,1-.71.15.44.44,0,0,1-.47-.44.46.46,0,0,1,.48-.46c.39,0,.58.29.7.75m-1.32,0a2.44,2.44,0,0,1-1.4-2.5c0-1.92,1.12-2.66,2-2.66s2,.76,2,2.66a2.61,2.61,0,0,1-1,2.32c-.31-.73-.69-.83-1-.83a.69.69,0,0,0-.7.68A.73.73,0,0,0,106.37,85.4Zm1.7.13a2.79,2.79,0,1,0-1.09.23,2.81,2.81,0,0,0,.77-.11c.17.81.31,1.48,1,1.48s1-1,1-1.47c0-.07,0-.18-.11-.18s-.1.09-.11.14a.73.73,0,0,1-.74.69C108.53,86.31,108.32,86.12,108.07,85.53Z" transform="translate(-45.62 -60.03)"/><path d="M119.92,80.24c.07-.1.07-.12.07-.15a.18.18,0,0,0-.18-.18c-.1,0-.15.06-.2.16L115.83,87c-.06.1-.06.11-.06.15a.19.19,0,0,0,.18.18c.1,0,.14-.06.2-.16l3.77-6.9" transform="translate(-45.62 -60.03)"/><path d="M120.38,84.63c.12,0,.31,0,.31-.18s-.16-.19-.28-.19h-5.06c-.12,0-.28,0-.28.19s.19.18.31.18h5m0-1.69c.12,0,.28,0,.28-.18s-.19-.18-.31-.18h-5c-.12,0-.31,0-.31.18s.16.18.28.18Z" transform="translate(-45.62 -60.03)"/><path d="M129.27,80.66a4.93,4.93,0,0,1,.26,2.09,10.58,10.58,0,0,1-.09,1.71c-.18.93-.74,1.07-1,1.07a1,1,0,0,1-.58-.2l1.44-4.67M127.55,85a5.64,5.64,0,0,1-.27-2.23,9.37,9.37,0,0,1,.09-1.63c.19-.86.77-1,1-1a1,1,0,0,1,.58.2Zm-.31,1a.18.18,0,0,0,.18.18c.14,0,.16-.09.21-.24s.1-.33.11-.35a1.85,1.85,0,0,0,.67.15,1.5,1.5,0,0,0,1.39-.92,4.52,4.52,0,0,0,.33-2c0-.52,0-2-.75-2.58a4.32,4.32,0,0,0,.19-.63.19.19,0,0,0-.18-.19c-.13,0-.16.1-.21.24s-.07.24-.11.37a1.37,1.37,0,0,0-.66-.16,1.52,1.52,0,0,0-1.43,1,4.71,4.71,0,0,0-.3,2,3.49,3.49,0,0,0,.74,2.52Z" transform="translate(-45.62 -60.03)"/><rect class="cls-1" x="11.07" y="28.39" width="481.89" height="9.46"/><path class="cls-2" d="M50.34,92.22v1.83H48.85Zm1.07,2v-.22h-.63V91.83c0-.12,0-.15-.13-.15s-.11,0-.17.07l-1.86,2.3v.22H50.3v.39c0,.16,0,.21-.44.21h-.18v.22l.86,0,.86,0v-.22h-.18c-.44,0-.44-.05-.44-.21v-.39Z" transform="translate(-45.62 -60.03)"/><path d="M100.15,91.67v.27c.54,0,.61,0,.61.44v1.38a1.07,1.07,0,0,1-1,1.19c-.68,0-.72-.34-.72-.74V91.59l-1.2.08v.27c.6,0,.6,0,.6.73v1.19c0,.57,0,1.31,1.27,1.31a1.17,1.17,0,0,0,1.07-.64h0v.64l1.19-.08v-.26c-.54,0-.61-.06-.61-.45V91.59l-1.21.08" transform="translate(-45.62 -60.03)"/><path d="M115.17,93.29c.12,0,.3,0,.3-.19s-.18-.18-.3-.18H109a2.94,2.94,0,0,0,.71-.74,2.76,2.76,0,0,0,.43-1.06c0-.11-.11-.11-.18-.11s-.16,0-.19.1A2.43,2.43,0,0,1,108.09,93c-.06,0-.11,0-.11.12a.13.13,0,0,0,.08.12,2.45,2.45,0,0,1,1,.61,2.49,2.49,0,0,1,.65,1.19c0,.16,0,.18.2.18s.18,0,.18-.12a2.81,2.81,0,0,0-.43-1.06,3.09,3.09,0,0,0-.71-.73h6.17" transform="translate(-45.62 -60.03)"/><path d="M115,93.29c.12,0,.3,0,.3-.19s-.18-.18-.3-.18H110.4c-.13,0-.3,0-.3.18s.17.19.3.19H115" transform="translate(-45.62 -60.03)"/><path d="M125.41,94.72a1.92,1.92,0,0,1-.65.11c-.24,0-.52-.07-.52-.32s.28-.34.51-.34.52.22.66.55m-1.49-.07a2.22,2.22,0,0,1-1.06-2.25,3.19,3.19,0,0,1,.43-1.8,1.78,1.78,0,0,1,1.46-.7,1.76,1.76,0,0,1,1.44.68,3.06,3.06,0,0,1,.45,1.82,2.46,2.46,0,0,1-.83,2.12,1.37,1.37,0,0,0-1.06-.69.75.75,0,0,0-.84.68A.66.66,0,0,0,123.92,94.65Zm2.24.31a2.61,2.61,0,0,0,1.7-2.56,3.12,3.12,0,0,0-6.22,0c0,1.56,1.09,2.8,3.12,2.8a4.27,4.27,0,0,0,.79-.07c.22.77.41,1.5,1.2,1.5s1.17-.89,1.17-1.48c0-.06,0-.23-.17-.23s-.16.13-.17.19c0,.25-.56.25-.69.25S126.48,95.36,126.16,95Z" transform="translate(-45.62 -60.03)"/><path d="M130.39,94.45a.64.64,0,0,0-.64-.63.63.63,0,0,0-.63.63.64.64,0,0,0,.63.64.64.64,0,0,0,.64-.64" transform="translate(-45.62 -60.03)"/><path d="M134.64,94.21a1.33,1.33,0,0,1-1.11.6c-1,0-1-1-1-1.46s0-1.51,1.13-1.51a1.27,1.27,0,0,1,1,.49v1.88m-.47-4.57v.41c.47,0,.52,0,.52.31v1.49a2.13,2.13,0,0,0-3.26,1.48,1.83,1.83,0,0,0,2,1.82,1.89,1.89,0,0,0,1.18-.39v.39l1.5-.06v-.41c-.47,0-.53,0-.53-.31v-4.8Z" transform="translate(-45.62 -60.03)"/><path d="M137.84,93.1c0-.32,0-1.29,1-1.29s1,1,1,1.29h-2.06m2.57.31c.17,0,.27,0,.27-.24a1.73,1.73,0,0,0-.48-1.25,1.92,1.92,0,0,0-1.34-.45,1.86,1.86,0,0,0-2.09,1.83c0,1,.8,1.85,2.21,1.85s1.7-.86,1.7-1-.17-.17-.22-.17-.17,0-.23.15a1.25,1.25,0,0,1-1.16.61c-1.17,0-1.21-.92-1.23-1.36Z" transform="translate(-45.62 -60.03)"/><path d="M144.59,93.9a.5.5,0,0,1-.12.36,1.28,1.28,0,0,1-1,.55c-.57,0-1-.49-1-1.48s.59-1.45,1.13-1.45a1.1,1.1,0,0,1,1.06,1v1m.92-2.39h-.39l-.39.62a1.63,1.63,0,0,0-1.3-.62,1.87,1.87,0,0,0-2.1,1.82,1.83,1.83,0,0,0,2,1.82,1.79,1.79,0,0,0,1.18-.43v1.5H144v.41c.43,0,.71,0,1,0s.58,0,1,0v-.41h-.53Z" transform="translate(-45.62 -60.03)"/><path d="M149.25,91.57V92c.47,0,.52,0,.52.31V93.8a1,1,0,0,1-1.06,1c-.65,0-.67-.18-.67-.59V91.51l-1.5.06V92c.47,0,.53,0,.53.31v1.82c0,.89.75,1,1.52,1a1.4,1.4,0,0,0,1.23-.56v.56l1.45-.06v-.41c-.47,0-.53,0-.53-.31V91.51l-1.49.06" transform="translate(-45.62 -60.03)"/><path d="M152.94,93.1c0-.32,0-1.29,1-1.29s1,1,1,1.29h-2.06m2.57.31c.17,0,.27,0,.27-.24a1.73,1.73,0,0,0-.48-1.25,1.92,1.92,0,0,0-1.34-.45,1.86,1.86,0,0,0-2.09,1.83c0,1,.8,1.85,2.21,1.85s1.7-.86,1.7-1-.17-.17-.22-.17-.17,0-.23.15a1.25,1.25,0,0,1-1.16.61c-1.17,0-1.21-.92-1.23-1.36Z" transform="translate(-45.62 -60.03)"/><path d="M159.85,97.08c.06,0,.16,0,.16-.1s0,0-.12-.14a5,5,0,0,1-1.36-3.74,4.75,4.75,0,0,1,1.36-3.72c.11-.11.12-.11.12-.16a.11.11,0,0,0-.12-.09c-.12,0-.52.41-.58.48A5,5,0,0,0,158,93.1a4.8,4.8,0,0,0,1.83,4" transform="translate(-45.62 -60.03)"/><path d="M164.16,93.1a5.55,5.55,0,0,0-.62-2.6,3.49,3.49,0,0,0-1.26-1.37.09.09,0,0,0-.1.09s0,0,.09.15a5,5,0,0,1,1.37,3.73,4.82,4.82,0,0,1-1.35,3.73c-.11.1-.11.11-.11.15a.09.09,0,0,0,.1.1c.13,0,.52-.41.59-.48a5,5,0,0,0,1.29-3.5" transform="translate(-45.62 -60.03)"/><rect class="cls-1" x="11.07" y="37.86" width="481.89" height="9.46"/><path class="cls-2" d="M49.29,101.71a2.19,2.19,0,0,0,.55.07,1.53,1.53,0,0,0,.72-.17c.13-.06.47-.28.47-.39s-.06-.09-.07-.09l-.08,0a2.88,2.88,0,0,1-.83.13,2.64,2.64,0,0,1-.84-.14l-.07,0c-.07,0-.07.06-.07.14v1.52c0,.08,0,.15.09.15s.06,0,.11-.07a1,1,0,0,1,.8-.33.63.63,0,0,1,.53.28,1.17,1.17,0,0,1,.14.64.94.94,0,0,1-.22.69.9.9,0,0,1-.63.25A1,1,0,0,1,49,104a.28.28,0,0,0,.28-.29.27.27,0,0,0-.28-.28.28.28,0,0,0-.28.3,1,1,0,0,0,1.14.91,1.27,1.27,0,0,0,1.37-1.13,1.14,1.14,0,0,0-1.19-1.1,1.21,1.21,0,0,0-.79.25v-.91" transform="translate(-45.62 -60.03)"/><path d="M99.22,101.37h1V101h-1v-.78c0-.43.18-.93.83-.93,0,0,.1,0,.1,0a0,0,0,0,1,0,0,.52.52,0,0,0,.4.87.51.51,0,0,0,.52-.52c0-.36-.32-.73-1-.73-.81,0-1.74.32-1.74,1.27V101h-.62v.41h.62v2.71h-.52v.41c.46,0,.54,0,1,0l1.08,0v-.41h-.65v-2.71" transform="translate(-45.62 -60.03)"/><path d="M102.73,104.17c-1.09,0-1.09-.82-1.09-1.51s0-1.45,1.09-1.45,1.09.81,1.09,1.45,0,1.51-1.09,1.51m2.16-1.41a2.18,2.18,0,0,0-4.32,0c0,.94.7,1.79,2.16,1.79S104.89,103.7,104.89,102.76Z" transform="translate(-45.62 -60.03)"/><path d="M107,102.79c0-.63.25-1.53,1-1.55a.57.57,0,0,0-.13.36.53.53,0,0,0,1,0c0-.44-.44-.69-.9-.69a1.23,1.23,0,0,0-1.12.85h0v-.85l-1.34.06v.41c.46,0,.52,0,.52.31v2.39h-.52v.41c.46,0,.54,0,1,0l1.08,0v-.41H107v-1.29" transform="translate(-45.62 -60.03)"/><path d="M113.84,102.49c0-.31,0-1.28,1-1.28s1,1,1,1.28h-2.06m2.57.32c.17,0,.27,0,.27-.24a1.73,1.73,0,0,0-.48-1.25,1.92,1.92,0,0,0-1.34-.45,1.86,1.86,0,0,0-2.09,1.83c0,1,.8,1.85,2.21,1.85s1.7-.86,1.7-1-.17-.17-.22-.17-.17,0-.23.15a1.25,1.25,0,0,1-1.16.61c-1.17,0-1.21-.92-1.23-1.36Z" transform="translate(-45.62 -60.03)"/><path d="M120,103.4c0,.81-1,.81-1,.81a.7.7,0,0,1-.78-.63c0-.55.74-.89,1.77-.92v.74m1-1.26c0-.72-.57-1.27-1.87-1.27-.39,0-1.53,0-1.53.79a.53.53,0,0,0,.54.54.52.52,0,0,0,.54-.53.59.59,0,0,0-.17-.41,3.74,3.74,0,0,1,.61-.05.82.82,0,0,1,.91.92v.23c-1.19,0-2.74.27-2.74,1.24,0,.68.76,1,1.63,1a1.39,1.39,0,0,0,1.26-.6c0,.24.09.54.86.54h.42c.15,0,.27,0,.27-.21s-.13-.2-.24-.2c-.49,0-.49-.08-.49-.26Z" transform="translate(-45.62 -60.03)"/><path d="M125.74,103.58c0-.15-.12-.15-.22-.15s-.17,0-.23.15a1,1,0,0,1-1,.59c-1.18,0-1.18-1.13-1.18-1.47s0-1.45,1.09-1.45a1.88,1.88,0,0,1,.5,0l0,0a.58.58,0,0,0-.1.33.54.54,0,1,0,1.07,0c0-.79-1.15-.79-1.47-.79a1.88,1.88,0,0,0-2.13,1.86,1.85,1.85,0,0,0,2.09,1.82,2.13,2.13,0,0,0,1.09-.27,1.15,1.15,0,0,0,.53-.7" transform="translate(-45.62 -60.03)"/><path d="M130.44,102.08c0-1-.6-1.17-1.31-1.17a1.68,1.68,0,0,0-1.44.73V99l-1.45.07v.41c.47,0,.53,0,.53.31v4.32h-.53v.41c.43,0,.71,0,1,0s.57,0,1,0v-.41h-.52v-1.6a1.24,1.24,0,0,1,1.27-1.24c.28,0,.46.13.46.75v2.09H129v.41c.43,0,.7,0,1,0s.58,0,1,0v-.41h-.53v-2" transform="translate(-45.62 -60.03)"/><path d="M140.12,101.88a.78.78,0,0,1,.76-.55v-.26a6,6,0,0,1-.62,0c-.08,0-.45,0-.7,0v.26a.32.32,0,0,1,.35.32.41.41,0,0,1,0,.19l-.86,2-.94-2.16a.36.36,0,0,1,0-.16c0-.2.29-.2.42-.2v-.26c-.34,0-.71,0-.86,0s-.55,0-.81,0v.26c.49,0,.53,0,.65.32l1.19,2.75c.06.11.1.17.21.17a.21.21,0,0,0,.21-.16l1.09-2.53" transform="translate(-45.62 -60.03)"/><path d="M152.49,101.78c0-.25-.09-.29-.13-.29s-.13.2-.13.32a1.22,1.22,0,0,1-1.15,1.2,2,2,0,0,1-1.33-.71,2.22,2.22,0,0,0-1.48-.81c-.91,0-1.4,1-1.4,1.73,0,.27.09.29.12.29s.13-.05.13-.25a1.23,1.23,0,0,1,1.15-1.27,2,2,0,0,1,1.33.72,2.22,2.22,0,0,0,1.48.81,1.61,1.61,0,0,0,1.41-1.74" transform="translate(-45.62 -60.03)"/><path d="M161,101.07v.27c.53,0,.6,0,.6.44v1.38a1.07,1.07,0,0,1-1,1.19c-.68,0-.72-.34-.72-.74V101l-1.2.08v.27c.6,0,.6,0,.6.73v1.19c0,.57,0,1.31,1.27,1.31a1.17,1.17,0,0,0,1.07-.64h0v.64l1.19-.08v-.26c-.54,0-.61-.06-.61-.45V101l-1.2.08" transform="translate(-45.62 -60.03)"/><path d="M171.84,103.61a1.33,1.33,0,0,1-1.11.6c-1,0-1-1-1-1.46s0-1.51,1.13-1.51a1.27,1.27,0,0,1,1,.49v1.88M171.37,99v.41c.47,0,.52,0,.52.31v1.49a2.13,2.13,0,0,0-3.26,1.48,1.83,1.83,0,0,0,2,1.82,1.89,1.89,0,0,0,1.18-.39v.39l1.5-.06v-.41c-.47,0-.53,0-.53-.31V99Z" transform="translate(-45.62 -60.03)"/><path d="M176.13,104.17c-1.09,0-1.09-.82-1.09-1.51s0-1.45,1.09-1.45,1.09.81,1.09,1.45,0,1.51-1.09,1.51m2.16-1.41a2.18,2.18,0,0,0-4.32,0c0,.94.7,1.79,2.16,1.79S178.29,103.7,178.29,102.76Z" transform="translate(-45.62 -60.03)"/><rect class="cls-1" x="11.07" y="47.32" width="481.89" height="9.46"/><path class="cls-2" d="M50,113.9c-.78,0-.78-.84-.78-1.05a.82.82,0,0,1,.81-.85.62.62,0,0,1,.57.27,1,1,0,0,1,.16.68,1,1,0,0,1-.16.69.74.74,0,0,1-.6.26m-.79-1.56a2,2,0,0,1,.19-1,1.07,1.07,0,0,1,.94-.56.81.81,0,0,1,.48.13.28.28,0,0,0-.22.27.27.27,0,0,0,.27.27.26.26,0,0,0,.27-.28c0-.28-.19-.58-.8-.58a1.7,1.7,0,0,0-1.67,1.76c0,1.2.59,1.71,1.33,1.71a1.23,1.23,0,0,0,.91-.33,1,1,0,0,0,0-1.6,1.18,1.18,0,0,0-.89-.34A1,1,0,0,0,49.24,112.34Z" transform="translate(-45.62 -60.03)"/><path d="M118.19,110.47v.41c.45,0,.5,0,.5.31v2.39h-.52V114c.46,0,.55,0,1,0s.55,0,.94,0v-.41h-.46v-3.17l-1.43.06m1.5-1.37a.64.64,0,0,0-.64-.63.64.64,0,0,0,0,1.27A.64.64,0,0,0,119.69,109.1Z" transform="translate(-45.62 -60.03)"/><path d="M122.32,110.87h1v-.41h-1v-.78c0-.43.18-.93.83-.93,0,0,.11,0,.11,0s0,0,0,0a.52.52,0,0,0,.4.87.51.51,0,0,0,.52-.52c0-.36-.32-.73-1-.73s-1.74.32-1.74,1.27v.77h-.62v.41h.62v2.71h-.52V114c.46,0,.54,0,1,0l1.08,0v-.41h-.65v-2.71" transform="translate(-45.62 -60.03)"/><path d="M133,116c.06,0,.15,0,.15-.1s0,0-.11-.14a5,5,0,0,1-1.36-3.74,4.75,4.75,0,0,1,1.36-3.72c.11-.11.11-.11.11-.16A.1.1,0,0,0,133,108c-.12,0-.52.41-.58.48a5,5,0,0,0-1.29,3.49,4.8,4.8,0,0,0,1.83,4" transform="translate(-45.62 -60.03)"/><path d="M138.32,111.38a.78.78,0,0,1,.75-.55v-.26a5.72,5.72,0,0,1-.61,0c-.08,0-.45,0-.7,0v.26a.32.32,0,0,1,.35.32.41.41,0,0,1,0,.19l-.86,2-.94-2.16a.36.36,0,0,1-.05-.16c0-.2.29-.2.42-.2v-.26c-.34,0-.71,0-.86,0s-.55,0-.81,0v.26c.49,0,.53,0,.65.32l1.19,2.75c.06.11.1.17.21.17a.21.21,0,0,0,.21-.16l1.09-2.53" transform="translate(-45.62 -60.03)"/><path d="M149.22,112.19c.12,0,.3,0,.3-.19s-.18-.18-.3-.18h-3.55a2.18,2.18,0,0,1,2.24-1.95h1.31c.12,0,.3,0,.3-.18s-.18-.18-.3-.18h-1.34a2.5,2.5,0,1,0,0,5h1.34c.12,0,.3,0,.3-.18s-.18-.19-.3-.19h-1.31a2.18,2.18,0,0,1-2.24-1.94h3.55" transform="translate(-45.62 -60.03)"/><path d="M158.59,113.76a1.71,1.71,0,0,1-.71.15.45.45,0,0,1-.48-.44.47.47,0,0,1,.49-.46c.39,0,.58.29.7.75m-1.32,0a2.44,2.44,0,0,1-1.4-2.5c0-1.92,1.12-2.66,2-2.66s2,.76,2,2.66a2.61,2.61,0,0,1-1,2.32c-.31-.73-.69-.83-1-.83a.69.69,0,0,0-.7.68A.73.73,0,0,0,157.27,113.8Zm1.7.13a2.79,2.79,0,1,0-1.09.23,2.81,2.81,0,0,0,.77-.11c.17.81.31,1.48,1,1.48s1-1,1-1.47c0-.07,0-.18-.11-.18s-.1.09-.11.14a.73.73,0,0,1-.74.69C159.43,114.71,159.22,114.52,159,113.93Z" transform="translate(-45.62 -60.03)"/><path d="M168.51,109.41c0-.12-.09-.19-.21-.19s-.12,0-.19.18L166,113.82c-.05.1-.05.11-.05.15a.18.18,0,0,0,.18.19c.1,0,.15-.07.2-.17l2-4.16,2,4.13c.06.13.1.2.21.2a.18.18,0,0,0,.18-.19s0,0-.05-.15l-2.09-4.41" transform="translate(-45.62 -60.03)"/><path d="M179.29,111.83l.68-.54a1.69,1.69,0,0,1,1.05-.46v-.26a5.18,5.18,0,0,1-.62,0l-.85,0v.26c.15,0,.18.11.18.16a.54.54,0,0,1-.22.35l-1.15.92v-3.79l-1.18.09v.26c.54,0,.6.06.6.45v4.1c0,.36-.09.36-.6.36V114c.31,0,.74,0,.87,0s.57,0,.88,0v-.26c-.5,0-.6,0-.6-.36v-.77l.54-.43s.23.28.36.43.24.32.37.48.28.37.28.49-.15.16-.25.16V114c.34,0,.7,0,.84,0,.3,0,.46,0,.74,0v-.26a.77.77,0,0,1-.77-.41l-1.15-1.49" transform="translate(-45.62 -60.03)"/><path d="M183,112c.07-1.11.75-1.3,1-1.3.93,0,1,1.12,1,1.3h-2m2.33.21c.18,0,.23,0,.23-.19a1.44,1.44,0,0,0-1.52-1.54,1.77,1.77,0,0,0-1.75,1.8,1.85,1.85,0,0,0,1.86,1.82,1.41,1.41,0,0,0,1.41-1,.12.12,0,0,0-.13-.12c-.09,0-.11.06-.12.11a1.16,1.16,0,0,1-1.12.79,1.13,1.13,0,0,1-1-.53,2.09,2.09,0,0,1-.24-1.11Z" transform="translate(-45.62 -60.03)"/><path d="M189.92,111.37a.78.78,0,0,1,.75-.54v-.26a5.82,5.82,0,0,1-.62,0s-.46,0-.69,0v.26c.23,0,.35.14.35.32a.48.48,0,0,1-.05.2l-.85,1.92-.92-2.08c-.06-.12-.06-.13-.06-.16,0-.19.25-.2.42-.2v-.26c-.36,0-.7,0-.87,0s-.55,0-.81,0v.26c.42,0,.53,0,.66.32l1.26,2.84c-.36.84-.6,1.4-1.15,1.4a.58.58,0,0,1-.33-.1.34.34,0,1,0-.44-.32.71.71,0,0,0,.77.64c.7,0,1.09-.85,1.12-.93l1.46-3.31" transform="translate(-45.62 -60.03)"/><polyline points="149.33 55.95 149.33 55.58 148.53 55.58 148.53 48.36 149.33 48.36 149.33 48 148.16 48 148.16 55.95 149.33 55.95"/><path d="M199.46,110.57v.27c.53,0,.6,0,.6.44v1.38a1.07,1.07,0,0,1-1,1.19c-.68,0-.72-.34-.72-.74v-2.62l-1.2.08v.27c.6,0,.6,0,.6.73v1.19c0,.57,0,1.31,1.27,1.31a1.17,1.17,0,0,0,1.07-.64h0v.64l1.19-.08v-.26c-.54,0-.61-.06-.61-.45v-2.79l-1.2.08" transform="translate(-45.62 -60.03)"/><polyline points="158.73 48 157.56 48 157.56 48.36 158.36 48.36 158.36 55.58 157.56 55.58 157.56 55.95 158.73 55.95 158.73 48"/><path d="M214.57,112.19h2.33c.11,0,.29,0,.29-.19s-.18-.18-.29-.18h-2.33v-2.34c0-.11,0-.29-.19-.29s-.18.18-.18.29v2.34h-2.35c-.11,0-.28,0-.28.18s.17.19.28.19h2.35v2.34c0,.11,0,.29.18.29s.19-.18.19-.29v-2.34" transform="translate(-45.62 -60.03)"/><path d="M228,111.37a.72.72,0,0,1,.68-.54v-.26a5.64,5.64,0,0,1-.62,0c-.25,0-.47,0-.72,0v.26c.35,0,.43.22.43.36a.46.46,0,0,1,0,.2l-.75,2-.82-2.17a.37.37,0,0,1,0-.16c0-.2.26-.21.45-.21v-.26c-.31,0-.73,0-.82,0s-.5,0-.73,0v.26c.48,0,.5,0,.65.46l-.73,2-.79-2.06a.83.83,0,0,1,0-.15c0-.21.3-.21.44-.21v-.26c-.33,0-.69,0-.85,0s-.54,0-.77,0v.26c.39,0,.47,0,.56.25l1.06,2.8c0,.12.08.19.2.19s.17-.09.21-.19l.84-2.23.85,2.23c0,.1.07.19.2.19s.16-.08.19-.17l1-2.53" transform="translate(-45.62 -60.03)"/><path d="M230.75,112c.07-1.11.75-1.3,1-1.3.93,0,1,1.12,1,1.3h-2m2.33.21c.18,0,.23,0,.23-.19a1.44,1.44,0,0,0-1.52-1.54,1.77,1.77,0,0,0-1.75,1.8,1.85,1.85,0,0,0,1.86,1.82,1.41,1.41,0,0,0,1.41-1,.12.12,0,0,0-.13-.12c-.09,0-.11.06-.12.11a1.16,1.16,0,0,1-1.12.79,1.13,1.13,0,0,1-1-.53,2.09,2.09,0,0,1-.24-1.11Z" transform="translate(-45.62 -60.03)"/><path d="M234.76,110.57v.27c.51,0,.58,0,.58.43v2.1c0,.36-.1.36-.61.36V114c.31,0,.76,0,.88,0s.58,0,.86,0v-.26c-.52,0-.55,0-.55-.35v-2.89l-1.16.08M236,109.1a.44.44,0,0,0-.44-.45.43.43,0,0,0-.44.44.44.44,0,0,0,.44.44A.44.44,0,0,0,236,109.1Z" transform="translate(-45.62 -60.03)"/><path d="M239.85,114c.21,0,1.25,0,1.25.64,0,.42-.61.79-1.39.79s-1.4-.37-1.4-.79a.68.68,0,0,1,.78-.64h.76m-.38-1.37c-.73,0-.73-.76-.73-.94a1.13,1.13,0,0,1,.15-.66.73.73,0,0,1,.58-.27c.74,0,.74.76.74.93a1,1,0,0,1-.16.66A.73.73,0,0,1,239.47,112.59Zm-.5.85a.51.51,0,0,1-.44-.52.53.53,0,0,1,.1-.34,1.66,1.66,0,0,0,.84.24,1.27,1.27,0,0,0,1.36-1.17,1.12,1.12,0,0,0-.32-.76,1.25,1.25,0,0,1,.76-.27.21.21,0,0,0-.07.19.24.24,0,0,0,.25.25.24.24,0,0,0,.24-.26.42.42,0,0,0-.45-.4,1.31,1.31,0,0,0-.88.36,1.57,1.57,0,0,0-.89-.27,1.27,1.27,0,0,0-1.36,1.16,1.13,1.13,0,0,0,.37.81,1,1,0,0,0-.24.65.9.9,0,0,0,.34.71.89.89,0,0,0-.74.78c0,.57.82,1,1.87,1s1.86-.41,1.86-1a1,1,0,0,0-.51-.9,3.13,3.13,0,0,0-1.64-.25Z" transform="translate(-45.62 -60.03)"/><path d="M246.56,111.58c0-.66-.3-1.09-1.13-1.09a1.34,1.34,0,0,0-1.21.7h0v-2.72l-1.18.09v.26c.54,0,.6.06.6.45v4.1c0,.36-.1.36-.6.36V114c.34,0,.69,0,.9,0s.56,0,.91,0v-.26c-.51,0-.61,0-.61-.36v-1.44a1.16,1.16,0,0,1,1.12-1.22c.49,0,.61.34.61.84v1.82c0,.36-.1.36-.61.36V114c.34,0,.69,0,.91,0s.56,0,.91,0v-.26c-.51,0-.61,0-.61-.36v-1.79" transform="translate(-45.62 -60.03)"/><path d="M249.78,110.83H251v-.26h-1.18V109.1h-.25c0,.73-.33,1.48-1.07,1.5v.23h.71V113a1,1,0,0,0,1.09,1.07c.53,0,.84-.48.84-1.07v-.45h-.24V113c0,.55-.25.84-.55.84-.53,0-.53-.68-.53-.81v-2.18" transform="translate(-45.62 -60.03)"/><path d="M256.05,116c.06,0,.15,0,.15-.1s0,0-.11-.14a5.06,5.06,0,0,1-1.36-3.74,4.75,4.75,0,0,1,1.36-3.72c.11-.11.11-.11.11-.16a.1.1,0,0,0-.11-.09c-.12,0-.52.41-.58.48a5,5,0,0,0-1.29,3.49,4.8,4.8,0,0,0,1.83,4" transform="translate(-45.62 -60.03)"/><path d="M260.35,110.57v.27c.54,0,.61,0,.61.44v1.38a1.07,1.07,0,0,1-1,1.19c-.68,0-.72-.34-.72-.74v-2.62l-1.2.08v.27c.6,0,.6,0,.6.73v1.19c0,.57,0,1.31,1.27,1.31a1.17,1.17,0,0,0,1.07-.64h0v.64l1.19-.08v-.26c-.54,0-.61-.06-.61-.45v-2.79l-1.21.08" transform="translate(-45.62 -60.03)"/><path d="M265.49,113.87a1.85,1.85,0,0,1-.61,1.45s-.05.05-.05.09a.14.14,0,0,0,.11.12,1.86,1.86,0,0,0,.77-1.57c0-.44-.16-.85-.54-.85a.44.44,0,1,0,0,.88.45.45,0,0,0,.31-.12" transform="translate(-45.62 -60.03)"/><path d="M271.52,111.38a.78.78,0,0,1,.75-.55v-.26a5.72,5.72,0,0,1-.61,0c-.08,0-.45,0-.7,0v.26a.32.32,0,0,1,.35.32.41.41,0,0,1,0,.19l-.86,2-.94-2.16a.36.36,0,0,1-.05-.16c0-.2.29-.2.42-.2v-.26c-.34,0-.71,0-.86,0s-.55,0-.81,0v.26c.49,0,.53,0,.65.32L270,113.9c.06.11.1.17.21.17a.21.21,0,0,0,.21-.16l1.09-2.53" transform="translate(-45.62 -60.03)"/><path d="M276.16,112a5.55,5.55,0,0,0-.62-2.6,3.49,3.49,0,0,0-1.26-1.37.09.09,0,0,0-.1.09s0,0,.09.15a5,5,0,0,1,1.37,3.73,4.82,4.82,0,0,1-1.35,3.73c-.11.1-.11.11-.11.15a.09.09,0,0,0,.1.1c.13,0,.52-.41.59-.48a5,5,0,0,0,1.29-3.5" transform="translate(-45.62 -60.03)"/><path d="M288.59,109.89c.1,0,.17-.09.17-.2a.18.18,0,0,0-.19-.18s0,0-.14,0l-4.66,2.24c-.1,0-.17.1-.17.2s.07.15.17.2l4.66,2.24c.1.06.12.06.14.06a.18.18,0,0,0,.19-.18c0-.11-.07-.15-.17-.2L284.2,112l4.39-2.11" transform="translate(-45.62 -60.03)"/><path d="M297.59,111.83l.68-.54a1.69,1.69,0,0,1,1.05-.46v-.26a5.18,5.18,0,0,1-.62,0l-.85,0v.26c.15,0,.18.11.18.16a.54.54,0,0,1-.22.35l-1.15.92v-3.79l-1.18.09v.26c.54,0,.6.06.6.45v4.1c0,.36-.09.36-.6.36V114c.31,0,.74,0,.87,0s.57,0,.88,0v-.26c-.5,0-.6,0-.6-.36v-.77l.54-.43s.23.28.36.43.24.32.37.48.28.37.28.49-.15.16-.25.16V114c.34,0,.7,0,.84,0,.3,0,.46,0,.74,0v-.26a.77.77,0,0,1-.77-.41l-1.15-1.49" transform="translate(-45.62 -60.03)"/><path d="M301.35,112c.07-1.11.75-1.3,1-1.3.93,0,1,1.12,1,1.3h-2m2.33.21c.18,0,.22,0,.22-.19a1.43,1.43,0,0,0-1.51-1.54,1.77,1.77,0,0,0-1.75,1.8,1.85,1.85,0,0,0,1.86,1.82,1.39,1.39,0,0,0,1.4-1,.11.11,0,0,0-.12-.12c-.09,0-.11.06-.12.11a1.16,1.16,0,0,1-1.12.79,1.13,1.13,0,0,1-1-.53,2.09,2.09,0,0,1-.24-1.11Z" transform="translate(-45.62 -60.03)"/><path d="M308.22,111.37a.78.78,0,0,1,.75-.54v-.26a5.82,5.82,0,0,1-.62,0s-.46,0-.69,0v.26c.23,0,.35.14.35.32a.48.48,0,0,1-.05.2l-.85,1.92-.92-2.08c-.06-.12-.06-.13-.06-.16,0-.19.25-.2.42-.2v-.26c-.36,0-.7,0-.87,0s-.55,0-.8,0v.26c.41,0,.52,0,.65.32l1.26,2.84c-.36.84-.6,1.4-1.15,1.4a.58.58,0,0,1-.33-.1.34.34,0,1,0-.44-.32.71.71,0,0,0,.77.64c.7,0,1.09-.85,1.12-.93l1.46-3.31" transform="translate(-45.62 -60.03)"/><polyline points="267.73 55.95 267.73 55.58 266.93 55.58 266.93 48.36 267.73 48.36 267.73 48 266.56 48 266.56 55.95 267.73 55.95"/><path d="M318.72,111.38a.78.78,0,0,1,.75-.55v-.26a5.72,5.72,0,0,1-.61,0c-.08,0-.45,0-.7,0v.26a.32.32,0,0,1,.35.32.41.41,0,0,1,0,.19l-.86,2-.94-2.16a.36.36,0,0,1-.05-.16c0-.2.29-.2.42-.2v-.26c-.34,0-.71,0-.86,0s-.55,0-.8,0v.26c.48,0,.52,0,.64.32l1.19,2.75c.06.11.1.17.21.17a.21.21,0,0,0,.21-.16l1.09-2.53" transform="translate(-45.62 -60.03)"/><polyline points="277.23 48 276.06 48 276.06 48.36 276.86 48.36 276.86 55.58 276.06 55.58 276.06 55.95 277.23 55.95 277.23 48"/><path d="M327.86,112a5.55,5.55,0,0,0-.62-2.6A3.49,3.49,0,0,0,326,108a.09.09,0,0,0-.1.09s0,0,.09.15a5,5,0,0,1,1.37,3.73,4.82,4.82,0,0,1-1.35,3.73c-.11.1-.11.11-.11.15a.09.09,0,0,0,.1.1c.13,0,.53-.41.59-.48a5,5,0,0,0,1.29-3.5" transform="translate(-45.62 -60.03)"/><path d="M337.14,110.87h1.24v-.41h-1.24v-1.52h-.45c0,.79-.41,1.58-1.21,1.6v.33h.69V113c0,.82.64,1,1.32,1a1,1,0,0,0,1-1v-.4h-.44V113c0,.55-.3.67-.49.67-.46,0-.46-.42-.46-.63v-2.17" transform="translate(-45.62 -60.03)"/><path d="M343.74,111.58c0-1-.6-1.17-1.31-1.17a1.68,1.68,0,0,0-1.44.73v-2.67l-1.45.07V109c.47,0,.53,0,.53.31v4.32h-.53V114c.43,0,.71,0,1,0s.58,0,1,0v-.41H341V112a1.24,1.24,0,0,1,1.27-1.24c.28,0,.46.13.46.75v2.09h-.52V114c.43,0,.7,0,1,0s.58,0,1,0v-.41h-.53v-2" transform="translate(-45.62 -60.03)"/><path d="M345.84,112c0-.31,0-1.28,1-1.28s1,1,1,1.28h-2.06m2.57.32c.17,0,.27,0,.27-.24a1.73,1.73,0,0,0-.48-1.25,1.92,1.92,0,0,0-1.34-.45,1.86,1.86,0,0,0-2.09,1.83c0,1,.8,1.85,2.21,1.85s1.7-.86,1.7-1-.17-.17-.22-.17-.17,0-.23.15a1.25,1.25,0,0,1-1.16.61c-1.17,0-1.21-.92-1.23-1.36Z" transform="translate(-45.62 -60.03)"/><path d="M353.64,111.58c0-1-.6-1.17-1.31-1.17a1.66,1.66,0,0,0-1.49.81h0v-.81l-1.4.06v.41c.47,0,.53,0,.53.31v2.39h-.53V114c.43,0,.71,0,1,0s.58,0,1,0v-.41h-.52V112a1.24,1.24,0,0,1,1.27-1.24c.28,0,.46.13.46.75v2.09h-.52V114c.43,0,.7,0,1,0s.58,0,1,0v-.41h-.53v-2" transform="translate(-45.62 -60.03)"/><rect class="cls-1" x="11.07" y="56.79" width="481.89" height="9.46"/><path class="cls-2" d="M51.45,120.46s0,0,0-.08v-.14H50.28l-1,0c-.11,0-.12-.08-.13-.13H49l-.19,1.14H49c0-.08.07-.41.15-.46a3.51,3.51,0,0,1,.58,0h1.2c-.21.24-.48.52-.68.76a3,3,0,0,0-.67,1.8c0,.28.17.31.26.31.27,0,.27-.26.27-.32v-.1a2.59,2.59,0,0,1,.49-1.78l.85-.94" transform="translate(-45.62 -60.03)"/><path d="M140.26,120.59h.91a9,9,0,0,0-.31,1.9,2.45,2.45,0,0,0,.09.68c.1.34.18.4.32.4a.36.36,0,0,0,.36-.34.27.27,0,0,0,0-.14,3.06,3.06,0,0,1-.28-1.4,5.36,5.36,0,0,1,.11-1.1h1a.45.45,0,0,0,.29-.06.33.33,0,0,0,.12-.24c0-.22-.2-.22-.33-.22H139.6a1.1,1.1,0,0,0-.86.38,2.31,2.31,0,0,0-.51.7c0,.07.06.1.12.1s.09,0,.14-.09a1.16,1.16,0,0,1,1-.57H140a14.39,14.39,0,0,1-.94,2.38,1.26,1.26,0,0,0-.14.35.25.25,0,0,0,.27.25c.3,0,.38-.3.54-.95l.54-2" transform="translate(-45.62 -60.03)"/><polyline points="101.03 65.45 101.03 65.08 100.23 65.08 100.23 57.86 101.03 57.86 101.03 57.5 99.86 57.5 99.86 65.45 101.03 65.45"/><path d="M152,120.88a.78.78,0,0,1,.75-.55v-.26a5.72,5.72,0,0,1-.61,0c-.08,0-.45,0-.7,0v.26a.32.32,0,0,1,.35.32.41.41,0,0,1,0,.19l-.86,2-.94-2.16a.36.36,0,0,1-.05-.16c0-.2.29-.2.42-.2v-.26c-.34,0-.71,0-.86,0s-.55,0-.81,0v.26c.49,0,.53,0,.65.32l1.19,2.75c.06.11.1.17.21.17a.21.21,0,0,0,.21-.16l1.09-2.53" transform="translate(-45.62 -60.03)"/><polyline points="110.43 57.5 109.26 57.5 109.26 57.86 110.06 57.86 110.06 65.08 109.26 65.08 109.26 65.45 110.43 65.45 110.43 57.5"/><path d="M171.17,121.69c.12,0,.3,0,.3-.19s-.18-.18-.3-.18H165a2.94,2.94,0,0,0,.71-.74,2.76,2.76,0,0,0,.43-1.06c0-.11-.11-.11-.18-.11s-.16,0-.19.1a2.45,2.45,0,0,1-1.68,1.87c-.06,0-.11,0-.11.12a.13.13,0,0,0,.08.12,2.37,2.37,0,0,1,1,.61,2.44,2.44,0,0,1,.66,1.19c0,.16,0,.18.2.18s.18,0,.18-.12a2.81,2.81,0,0,0-.43-1.06,3.09,3.09,0,0,0-.71-.73h6.17" transform="translate(-45.62 -60.03)"/><path d="M170.85,121.69c.13,0,.31,0,.31-.19s-.18-.18-.31-.18H166.3c-.13,0-.3,0-.3.18s.17.19.3.19h4.55" transform="translate(-45.62 -60.03)"/><path d="M179.85,120.07v.27c.54,0,.61,0,.61.44v1.38a1.07,1.07,0,0,1-1,1.19c-.68,0-.72-.34-.72-.74V120l-1.2.08v.27c.6,0,.6,0,.6.73v1.19c0,.57,0,1.31,1.27,1.31a1.17,1.17,0,0,0,1.07-.64h0v.64l1.19-.08v-.26c-.54,0-.61-.06-.61-.45V120l-1.21.08" transform="translate(-45.62 -60.03)"/><rect class="cls-1" x="11.07" y="66.25" width="481.89" height="9.46"/><path class="cls-2" d="M49.76,131.31l.78.39c.18.1.44.24.44.51s-.51.59-1,.59-1-.23-1-.69.55-.73.71-.8m-.29-.75a.43.43,0,0,1-.28-.37c0-.32.42-.47.82-.47s.83.2.83.58-.58.65-.58.65l-.06,0Zm1,.51c.52-.22.69-.48.69-.77,0-.53-.58-.77-1.13-.77s-1.14.35-1.14.86.4.67.66.81c-.53.2-.84.5-.84.91,0,.61.67.89,1.31.89s1.32-.38,1.32-1S50.8,131.22,50.46,131.07Z" transform="translate(-45.62 -60.03)"/><path d="M142,132c0-.15-.12-.15-.22-.15s-.17,0-.23.15a1,1,0,0,1-1,.59c-1.18,0-1.18-1.13-1.18-1.47s0-1.45,1.09-1.45a1.88,1.88,0,0,1,.5,0l0,0a.58.58,0,0,0-.1.33.52.52,0,0,0,.53.53.51.51,0,0,0,.54-.54c0-.79-1.15-.79-1.47-.79a1.88,1.88,0,0,0-2.13,1.86,1.85,1.85,0,0,0,2.09,1.82,2.13,2.13,0,0,0,1.09-.27,1.15,1.15,0,0,0,.53-.7" transform="translate(-45.62 -60.03)"/><path d="M146.74,130.48c0-1-.6-1.17-1.31-1.17A1.68,1.68,0,0,0,144,130v-2.67l-1.45.07v.41c.47,0,.53,0,.53.31v4.32h-.53v.41c.43,0,.71,0,1,0s.58,0,1,0v-.41H144v-1.6a1.24,1.24,0,0,1,1.27-1.24c.28,0,.46.13.46.76v2.08h-.52v.41c.43,0,.71,0,1,0s.58,0,1,0v-.41h-.53v-2" transform="translate(-45.62 -60.03)"/><path d="M150.52,131.8c0,.81-1,.81-1,.81a.7.7,0,0,1-.78-.63c0-.55.74-.89,1.77-.92v.74m1-1.26c0-.72-.57-1.27-1.87-1.27-.39,0-1.53,0-1.53.79a.53.53,0,0,0,.54.54.52.52,0,0,0,.54-.53.59.59,0,0,0-.17-.41,3.74,3.74,0,0,1,.61,0,.82.82,0,0,1,.91.92v.23c-1.19,0-2.74.27-2.74,1.24,0,.68.76.95,1.63.95a1.39,1.39,0,0,0,1.26-.6c0,.24.09.54.86.54H152c.15,0,.27,0,.27-.21s-.13-.2-.24-.2c-.49,0-.49-.08-.49-.26Z" transform="translate(-45.62 -60.03)"/><path d="M156.84,130.48c0-1-.6-1.17-1.31-1.17a1.66,1.66,0,0,0-1.49.81h0v-.81l-1.4.06v.41c.47,0,.53,0,.53.31v2.39h-.53v.41c.43,0,.71,0,1,0s.58,0,1,0v-.41h-.52v-1.6a1.24,1.24,0,0,1,1.27-1.24c.28,0,.46.13.46.76v2.08h-.52v.41c.43,0,.7,0,1,0s.58,0,1,0v-.41h-.53v-2" transform="translate(-45.62 -60.03)"/><path d="M160.35,133c.24,0,1.2,0,1.2.46,0,.27-.33.67-1.42.67s-1.42-.38-1.42-.68.52-.45.63-.45h1m-.49-1.68c-.75,0-.75-.52-.75-.84s0-.85.75-.85.76.52.76.84S160.62,131.34,159.86,131.34Zm-.38.86c-.24,0-.39,0-.51-.1a.53.53,0,0,1-.18-.39.44.44,0,0,1,.06-.23,2.39,2.39,0,0,0,1,.2c1.29,0,1.68-.7,1.68-1.18a1.05,1.05,0,0,0-.32-.75,1.44,1.44,0,0,1,.49-.15.38.38,0,0,0,0,.17.37.37,0,0,0,.38.38.37.37,0,0,0,.38-.38.53.53,0,0,0-.56-.52,1.6,1.6,0,0,0-.9.31,2.12,2.12,0,0,0-1.11-.25c-1.29,0-1.68.7-1.68,1.18a1.07,1.07,0,0,0,.42.83,1.08,1.08,0,0,0,.06,1.47c-.33.08-.69.31-.69.69s.47,1,2.16,1c1.5,0,2.16-.47,2.16-1a1.11,1.11,0,0,0-.76-1.08,4.5,4.5,0,0,0-1.64-.17Z" transform="translate(-45.62 -60.03)"/><path d="M163.84,130.9c0-.32,0-1.29,1-1.29s1,1,1,1.29h-2.06m2.57.31c.17,0,.27,0,.27-.24a1.73,1.73,0,0,0-.48-1.25,1.92,1.92,0,0,0-1.34-.45,1.86,1.86,0,0,0-2.09,1.83c0,1,.8,1.85,2.21,1.85s1.7-.86,1.7-1-.17-.17-.22-.17-.17,0-.23.15a1.25,1.25,0,0,1-1.16.61c-1.17,0-1.21-.92-1.23-1.36Z" transform="translate(-45.62 -60.03)"/><path d="M170.55,134.88c.06,0,.16,0,.16-.1s0,0-.12-.14a5.06,5.06,0,0,1-1.36-3.74,4.75,4.75,0,0,1,1.36-3.72c.11-.11.12-.11.12-.16a.11.11,0,0,0-.12-.09c-.12,0-.52.41-.58.48a5,5,0,0,0-1.29,3.49,4.8,4.8,0,0,0,1.83,4" transform="translate(-45.62 -60.03)"/><path d="M175.59,132.66a1.71,1.71,0,0,1-.71.15.45.45,0,0,1-.48-.44.47.47,0,0,1,.49-.46c.39,0,.58.29.7.75m-1.32,0a2.44,2.44,0,0,1-1.4-2.5c0-1.92,1.12-2.66,2-2.66s2,.76,2,2.66a2.61,2.61,0,0,1-1,2.32c-.31-.73-.69-.83-1-.83a.69.69,0,0,0-.7.68A.73.73,0,0,0,174.27,132.7Zm1.7.13a2.79,2.79,0,1,0-1.09.23,2.81,2.81,0,0,0,.77-.11c.17.81.31,1.48,1,1.48s1-1,1-1.47c0-.07,0-.18-.11-.18s-.1.09-.11.14a.73.73,0,0,1-.74.69C176.43,133.61,176.22,133.42,176,132.83Z" transform="translate(-45.62 -60.03)"/><path d="M180,132.77a1.85,1.85,0,0,1-.61,1.45s0,.05,0,.09a.14.14,0,0,0,.11.12,1.86,1.86,0,0,0,.77-1.57c0-.44-.16-.85-.54-.85a.44.44,0,1,0,0,.88.45.45,0,0,0,.31-.12" transform="translate(-45.62 -60.03)"/><path d="M186,130.28a.78.78,0,0,1,.75-.55v-.26a5.72,5.72,0,0,1-.61,0c-.08,0-.45,0-.7,0v.26a.32.32,0,0,1,.35.32.41.41,0,0,1,0,.19l-.86,2-.94-2.16a.36.36,0,0,1-.05-.16c0-.2.29-.2.42-.2v-.26c-.34,0-.71,0-.86,0s-.55,0-.81,0v.26c.49,0,.53,0,.65.32l1.19,2.75c.06.11.1.17.21.17a.21.21,0,0,0,.21-.16l1.09-2.53" transform="translate(-45.62 -60.03)"/><path d="M190.19,132.77a1.85,1.85,0,0,1-.61,1.45s-.05.05-.05.09a.14.14,0,0,0,.11.12,1.86,1.86,0,0,0,.77-1.57c0-.44-.16-.85-.54-.85a.44.44,0,1,0,0,.88.45.45,0,0,0,.31-.12" transform="translate(-45.62 -60.03)"/><path d="M195.49,130.73l.68-.54a1.69,1.69,0,0,1,1.05-.46v-.26a5.18,5.18,0,0,1-.62,0l-.85,0v.26c.15,0,.18.11.18.16a.54.54,0,0,1-.22.35l-1.15.92v-3.79l-1.18.09v.26c.54,0,.6.06.6.45v4.1c0,.36-.09.36-.6.36v.26c.31,0,.74,0,.87,0s.57,0,.88,0v-.26c-.5,0-.6,0-.6-.36v-.77l.54-.43s.23.28.36.43.24.32.37.48.28.37.28.49-.15.16-.25.16v.26c.34,0,.7,0,.84,0,.3,0,.46,0,.74,0v-.26a.77.77,0,0,1-.77-.41l-1.15-1.49" transform="translate(-45.62 -60.03)"/><path d="M199.05,130.87c.07-1.11.75-1.3,1-1.3.93,0,1,1.12,1,1.3h-2m2.33.21c.18,0,.22,0,.22-.18a1.43,1.43,0,0,0-1.51-1.55,1.77,1.77,0,0,0-1.75,1.8A1.85,1.85,0,0,0,200.2,133a1.39,1.39,0,0,0,1.4-1,.11.11,0,0,0-.12-.12c-.09,0-.11.06-.12.11a1.16,1.16,0,0,1-1.12.79,1.13,1.13,0,0,1-1-.53,2.09,2.09,0,0,1-.24-1.11Z" transform="translate(-45.62 -60.03)"/><path d="M206.12,130.27a.79.79,0,0,1,.76-.54v-.26a6.12,6.12,0,0,1-.63,0s-.46,0-.69,0v.26c.23,0,.35.14.35.32a.48.48,0,0,1,0,.2l-.85,1.92-.92-2.08c-.06-.12-.06-.13-.06-.16,0-.19.25-.2.42-.2v-.26c-.36,0-.7,0-.87,0s-.55,0-.81,0v.26c.42,0,.53,0,.66.32l1.26,2.84c-.36.84-.6,1.4-1.15,1.4a.58.58,0,0,1-.33-.1.34.34,0,1,0-.44-.32.71.71,0,0,0,.77.64c.7,0,1.09-.85,1.12-.93l1.46-3.31" transform="translate(-45.62 -60.03)"/><polyline points="165.53 74.85 165.53 74.48 164.73 74.48 164.73 67.26 165.53 67.26 165.53 66.9 164.36 66.9 164.36 74.85 165.53 74.85"/><path d="M215.56,129.47v.27c.53,0,.6,0,.6.44v1.38a1.07,1.07,0,0,1-1,1.19c-.68,0-.72-.34-.72-.74v-2.62l-1.2.08v.27c.6,0,.6,0,.6.73v1.19c0,.57,0,1.31,1.27,1.31a1.17,1.17,0,0,0,1.07-.64h0V133l1.19-.08v-.26c-.54,0-.61-.06-.61-.45v-2.79l-1.2.08" transform="translate(-45.62 -60.03)"/><polyline points="173.93 66.9 172.76 66.9 172.76 67.26 173.56 67.26 173.56 74.48 172.76 74.48 172.76 74.85 173.93 74.85 173.93 66.9"/><path d="M224.47,131.09h2.33c.11,0,.29,0,.29-.19s-.18-.18-.29-.18h-2.33v-2.34c0-.11,0-.29-.19-.29s-.18.18-.18.29v2.34h-2.34c-.12,0-.29,0-.29.18s.17.19.29.19h2.34v2.34c0,.11,0,.29.18.29s.19-.18.19-.29v-2.34" transform="translate(-45.62 -60.03)"/><path d="M234,130.27a.72.72,0,0,1,.68-.54v-.26a5.64,5.64,0,0,1-.62,0c-.25,0-.47,0-.72,0v.26c.35,0,.43.22.43.36a.46.46,0,0,1,0,.2l-.75,2-.82-2.17a.37.37,0,0,1,0-.16c0-.2.26-.21.45-.21v-.26c-.31,0-.73,0-.82,0s-.5,0-.73,0v.26c.48,0,.5,0,.65.46l-.73,2-.79-2.06a.83.83,0,0,1,0-.15c0-.21.3-.21.44-.21v-.26c-.33,0-.69,0-.85,0s-.54,0-.77,0v.26c.39,0,.47,0,.56.25l1.06,2.8c0,.12.08.19.2.19s.17-.09.21-.19l.84-2.23.85,2.23c0,.1.07.19.2.19s.16-.08.19-.17l1-2.53" transform="translate(-45.62 -60.03)"/><path d="M236.75,130.87c.07-1.11.75-1.3,1-1.3.93,0,1,1.12,1,1.3h-2m2.33.21c.18,0,.23,0,.23-.18a1.44,1.44,0,0,0-1.52-1.55,1.77,1.77,0,0,0-1.75,1.8A1.85,1.85,0,0,0,237.9,133a1.41,1.41,0,0,0,1.41-1,.12.12,0,0,0-.13-.12c-.09,0-.11.06-.12.11a1.16,1.16,0,0,1-1.12.79,1.13,1.13,0,0,1-1-.53,2.09,2.09,0,0,1-.24-1.11Z" transform="translate(-45.62 -60.03)"/><path d="M240.76,129.47v.27c.51,0,.58,0,.58.43v2.1c0,.36-.1.36-.61.36v.26c.31,0,.76,0,.88,0s.58,0,.86,0v-.26c-.52,0-.55,0-.55-.35v-2.89l-1.16.08M242,128a.44.44,0,0,0-.44-.44.43.43,0,0,0-.44.44.44.44,0,0,0,.44.44A.44.44,0,0,0,242,128Z" transform="translate(-45.62 -60.03)"/><path d="M246,132.86c.21,0,1.26,0,1.26.63,0,.43-.62.8-1.4.8s-1.4-.37-1.4-.8c0-.16.12-.63.78-.63H246m-.38-1.37c-.73,0-.73-.76-.73-.94a1.08,1.08,0,0,1,.15-.65.71.71,0,0,1,.58-.28c.74,0,.74.76.74.93a1,1,0,0,1-.16.66A.73.73,0,0,1,245.57,131.49Zm-.5.85a.51.51,0,0,1-.44-.52.53.53,0,0,1,.1-.34,1.66,1.66,0,0,0,.84.24,1.27,1.27,0,0,0,1.36-1.17,1.12,1.12,0,0,0-.32-.76,1.25,1.25,0,0,1,.76-.27.21.21,0,0,0-.07.19.24.24,0,0,0,.25.25.24.24,0,0,0,.24-.26.42.42,0,0,0-.45-.4,1.33,1.33,0,0,0-.88.36,1.57,1.57,0,0,0-.89-.27,1.27,1.27,0,0,0-1.36,1.16,1.13,1.13,0,0,0,.37.81,1,1,0,0,0-.24.65.9.9,0,0,0,.34.71.89.89,0,0,0-.74.78c0,.57.82,1,1.87,1s1.86-.41,1.86-1a1,1,0,0,0-.51-.9,3.13,3.13,0,0,0-1.64-.25Z" transform="translate(-45.62 -60.03)"/><path d="M252.56,130.48c0-.66-.3-1.09-1.13-1.09a1.34,1.34,0,0,0-1.21.7h0v-2.72l-1.18.09v.26c.54,0,.6.06.6.45v4.1c0,.36-.1.36-.6.36v.26c.34,0,.69,0,.9,0s.56,0,.91,0v-.26c-.51,0-.61,0-.61-.36v-1.44a1.16,1.16,0,0,1,1.12-1.22c.49,0,.61.34.61.84v1.82c0,.36-.1.36-.61.36v.26c.34,0,.69,0,.91,0s.56,0,.91,0v-.26c-.51,0-.61,0-.61-.36v-1.79" transform="translate(-45.62 -60.03)"/><path d="M255.78,129.73H257v-.26h-1.18V128h-.25c0,.73-.33,1.48-1.07,1.5v.23h.71v2.17a1,1,0,0,0,1.09,1.07c.53,0,.84-.48.84-1.07v-.45h-.24v.43c0,.55-.25.84-.55.84-.53,0-.53-.68-.53-.81v-2.18" transform="translate(-45.62 -60.03)"/><path d="M262.05,134.88c.06,0,.15,0,.15-.1s0,0-.11-.14a5.06,5.06,0,0,1-1.36-3.74,4.75,4.75,0,0,1,1.36-3.72c.11-.11.11-.11.11-.16a.1.1,0,0,0-.11-.09c-.12,0-.52.41-.58.48a5,5,0,0,0-1.29,3.49,4.8,4.8,0,0,0,1.83,4" transform="translate(-45.62 -60.03)"/><path d="M266.35,129.47v.27c.54,0,.61,0,.61.44v1.38a1.07,1.07,0,0,1-1,1.19c-.68,0-.72-.34-.72-.74v-2.62l-1.2.08v.27c.6,0,.6,0,.6.73v1.19c0,.57,0,1.31,1.27,1.31a1.17,1.17,0,0,0,1.07-.64h0V133l1.19-.08v-.26c-.54,0-.61-.06-.61-.45v-2.79l-1.21.08" transform="translate(-45.62 -60.03)"/><path d="M271.49,132.77a1.85,1.85,0,0,1-.61,1.45s-.05.05-.05.09a.14.14,0,0,0,.11.12,1.86,1.86,0,0,0,.77-1.57c0-.44-.16-.85-.54-.85a.44.44,0,1,0,0,.88.45.45,0,0,0,.31-.12" transform="translate(-45.62 -60.03)"/><path d="M277.52,130.28a.78.78,0,0,1,.75-.55v-.26a5.72,5.72,0,0,1-.61,0c-.08,0-.45,0-.7,0v.26a.32.32,0,0,1,.35.32.41.41,0,0,1,0,.19l-.86,2-.94-2.16a.36.36,0,0,1-.05-.16c0-.2.29-.2.42-.2v-.26c-.34,0-.71,0-.86,0s-.55,0-.81,0v.26c.49,0,.53,0,.65.32L276,132.8c.06.11.1.17.21.17a.21.21,0,0,0,.21-.16l1.09-2.53" transform="translate(-45.62 -60.03)"/><path d="M282.16,130.9a5.55,5.55,0,0,0-.62-2.6,3.49,3.49,0,0,0-1.26-1.37.09.09,0,0,0-.1.09s0,0,.09.15a5,5,0,0,1,1.37,3.73,4.82,4.82,0,0,1-1.35,3.73c-.11.1-.11.11-.11.15a.09.09,0,0,0,.1.1c.13,0,.52-.41.59-.48a5,5,0,0,0,1.29-3.5" transform="translate(-45.62 -60.03)"/><path d="M287.26,130.9a5.55,5.55,0,0,0-.62-2.6,3.49,3.49,0,0,0-1.26-1.37.09.09,0,0,0-.1.09s0,0,.09.15a5,5,0,0,1,1.37,3.73,4.82,4.82,0,0,1-1.35,3.73c-.11.1-.11.11-.11.15a.09.09,0,0,0,.1.1c.13,0,.52-.41.59-.48a5,5,0,0,0,1.29-3.5" transform="translate(-45.62 -60.03)"/><rect class="cls-1" x="11.07" y="75.72" width="481.89" height="9.46"/><path class="cls-2" d="M50,141.12a.66.66,0,0,1-.58-.26,1,1,0,0,1-.15-.69c0-.36,0-.51.21-.72a.7.7,0,0,1,.58-.23c.75,0,.75.84.75,1.05a.82.82,0,0,1-.81.85m.82-.33a2.08,2.08,0,0,1-.19,1,1,1,0,0,1-.87.51,1,1,0,0,1-.54-.13.25.25,0,0,0,.2-.26.26.26,0,0,0-.26-.27.26.26,0,0,0-.27.29c0,.57.74.57.88.57a1.66,1.66,0,0,0,1.59-1.76c0-1.22-.6-1.71-1.3-1.71a1.31,1.31,0,0,0-1,.35,1,1,0,0,0,0,1.57,1.18,1.18,0,0,0,.9.35A1,1,0,0,0,50.79,140.79Z" transform="translate(-45.62 -60.03)"/><path d="M119,140.4c0-.32,0-1.29,1-1.29s1,1,1,1.29H119m2.57.31c.17,0,.27,0,.27-.24a1.73,1.73,0,0,0-.48-1.25,1.92,1.92,0,0,0-1.34-.45A1.86,1.86,0,0,0,118,140.6c0,1,.8,1.85,2.21,1.85s1.7-.86,1.7-1-.17-.17-.22-.17-.17,0-.23.15a1.25,1.25,0,0,1-1.15.61c-1.18,0-1.22-.92-1.24-1.36Z" transform="translate(-45.62 -60.03)"/><path d="M126.74,140c0-1-.6-1.17-1.31-1.17a1.66,1.66,0,0,0-1.49.81h0v-.81l-1.4.06v.41c.47,0,.53,0,.53.31V142h-.53v.41c.43,0,.71,0,1,0s.57,0,1,0V142H124v-1.6a1.24,1.24,0,0,1,1.27-1.24c.28,0,.46.13.46.76V142h-.52v.41c.43,0,.71,0,1,0s.58,0,1,0V142h-.53v-2" transform="translate(-45.62 -60.03)"/><path d="M131.14,141.51a1.33,1.33,0,0,1-1.11.6c-1,0-1-1-1-1.46s0-1.51,1.13-1.51a1.27,1.27,0,0,1,1,.49v1.88m-.47-4.57v.41c.47,0,.52,0,.52.31v1.49a2.13,2.13,0,0,0-3.26,1.48,1.83,1.83,0,0,0,2,1.82,1.89,1.89,0,0,0,1.18-.39v.39l1.5-.06V142c-.47,0-.53,0-.53-.31v-4.8Z" transform="translate(-45.62 -60.03)"/><path d="M136.69,138.87v.41c.45,0,.5,0,.5.31V142h-.52v.41c.46,0,.55,0,1,0s.55,0,.94,0V142h-.46v-3.17l-1.43.06m1.5-1.37a.64.64,0,0,0-.64-.63.64.64,0,0,0,0,1.27A.64.64,0,0,0,138.19,137.5Z" transform="translate(-45.62 -60.03)"/><path d="M140.92,139.27h1v-.41h-1v-.78c0-.43.18-.93.83-.93,0,0,.1,0,.1,0a0,0,0,0,1,0,0,.52.52,0,0,0,.4.87.51.51,0,0,0,.52-.52c0-.36-.32-.73-1-.73-.81,0-1.74.33-1.74,1.27v.77h-.62v.41H140V142h-.52v.41c.46,0,.54,0,1,0l1.08,0V142h-.65v-2.71" transform="translate(-45.62 -60.03)"/><rect class="cls-1" x="11.07" y="85.18" width="481.89" height="9.46"/><path class="cls-2" d="M46.91,148.58c0-.15,0-.15-.19-.15a1.59,1.59,0,0,1-1,.32h-.09V149h.09a2.12,2.12,0,0,0,.73-.14v2.52c0,.15,0,.21-.53.21h-.25v.22c.27,0,.72,0,1,0s.75,0,1,0v-.22h-.25c-.53,0-.53-.06-.53-.21v-2.78" transform="translate(-45.62 -60.03)"/><path class="cls-2" d="M50,151.73a.71.71,0,0,1-.73-.57,4.48,4.48,0,0,1-.08-1,3.94,3.94,0,0,1,.08-1,.78.78,0,0,1,1.48,0,6.91,6.91,0,0,1,0,2,.72.72,0,0,1-.74.56m1.32-1.55c0-.37,0-1.75-1.32-1.75s-1.31,1.38-1.31,1.75,0,1.72,1.31,1.72S51.33,150.55,51.33,150.18Z" transform="translate(-45.62 -60.03)"/><path d="M98.64,149.8c0-.32,0-1.29,1-1.29s1,1,1,1.29H98.64m2.57.31c.17,0,.27,0,.27-.24a1.73,1.73,0,0,0-.48-1.25,1.92,1.92,0,0,0-1.34-.45A1.86,1.86,0,0,0,97.57,150c0,1,.8,1.86,2.21,1.86s1.7-.86,1.7-1-.17-.17-.22-.17-.17,0-.23.15a1.25,1.25,0,0,1-1.15.61c-1.18,0-1.22-.92-1.24-1.36Z" transform="translate(-45.62 -60.03)"/><path d="M106.44,149.38c0-1-.6-1.17-1.31-1.17a1.66,1.66,0,0,0-1.49.81h0v-.81l-1.4.06v.41c.47,0,.53,0,.53.31v2.39h-.53v.41c.43,0,.71,0,1,0s.57,0,1,0v-.41h-.52v-1.6a1.24,1.24,0,0,1,1.27-1.24c.28,0,.46.13.46.76v2.08H105v.41c.43,0,.71,0,1,0s.58,0,1,0v-.41h-.53v-2" transform="translate(-45.62 -60.03)"/><path d="M110.74,150.91a1.33,1.33,0,0,1-1.11.6c-1,0-1-1-1-1.46s0-1.51,1.13-1.51a1.27,1.27,0,0,1,1,.49v1.88m-.47-4.57v.41c.47,0,.52,0,.52.31v1.49a2.13,2.13,0,0,0-3.26,1.48,1.83,1.83,0,0,0,2,1.82,1.89,1.89,0,0,0,1.18-.39v.39l1.5-.06v-.41c-.47,0-.53,0-.53-.31v-4.8Z" transform="translate(-45.62 -60.03)"/><path d="M117.82,148.67h1v-.41h-1v-.78c0-.43.18-.93.83-.93,0,0,.11,0,.11,0s0,0,0,0a.52.52,0,0,0,.4.87.51.51,0,0,0,.52-.52c0-.36-.32-.73-1-.73s-1.74.33-1.74,1.27v.77h-.62v.41h.62v2.71h-.52v.41c.46,0,.54,0,1,0l1.08,0v-.41h-.65v-2.71" transform="translate(-45.62 -60.03)"/><path d="M121.33,151.47c-1.09,0-1.09-.82-1.09-1.51s0-1.45,1.09-1.45,1.09.81,1.09,1.45,0,1.51-1.09,1.51m2.16-1.41a2.18,2.18,0,0,0-4.32,0c0,.94.7,1.79,2.16,1.79S123.49,151,123.49,150.06Z" transform="translate(-45.62 -60.03)"/><path d="M125.61,150.09c0-.63.25-1.53,1-1.55a.57.57,0,0,0-.13.36.53.53,0,0,0,1.05,0c0-.44-.44-.69-.9-.69a1.23,1.23,0,0,0-1.12.85h0v-.85l-1.34.06v.41c.46,0,.52,0,.52.31v2.39h-.52v.41c.46,0,.54,0,1,0l1.08,0v-.41h-.65v-1.29" transform="translate(-45.62 -60.03)"/><rect class="cls-1" x="11.07" y="94.65" width="481.89" height="9.46"/><path class="cls-2" d="M46.91,158.08c0-.15,0-.15-.19-.15a1.59,1.59,0,0,1-1,.32h-.09v.23h.09a2.12,2.12,0,0,0,.73-.14v2.52c0,.15,0,.21-.53.21h-.25v.22c.27,0,.72,0,1,0s.75,0,1,0v-.22h-.25c-.53,0-.53-.06-.53-.21v-2.78" transform="translate(-45.62 -60.03)"/><path class="cls-2" d="M50.31,158.08c0-.15,0-.15-.19-.15a1.59,1.59,0,0,1-1,.32H49v.23h.09a2.12,2.12,0,0,0,.73-.14v2.52c0,.15,0,.21-.53.21h-.25v.22c.27,0,.72,0,1,0s.75,0,1,0v-.22h-.25c-.53,0-.53-.06-.53-.21v-2.78" transform="translate(-45.62 -60.03)"/><path d="M78.34,159.3c0-.32,0-1.29,1-1.29s1,1,1,1.29H78.34m2.57.31c.17,0,.27,0,.27-.24a1.73,1.73,0,0,0-.48-1.25,1.92,1.92,0,0,0-1.34-.45,1.86,1.86,0,0,0-2.09,1.82c0,1,.8,1.86,2.21,1.86s1.7-.86,1.7-1-.17-.17-.22-.17-.17,0-.23.15a1.25,1.25,0,0,1-1.16.61c-1.17,0-1.21-.92-1.23-1.36Z" transform="translate(-45.62 -60.03)"/><path d="M86.14,158.88c0-1-.6-1.17-1.31-1.17a1.66,1.66,0,0,0-1.49.81h0v-.81l-1.39.06v.41c.46,0,.52,0,.52.31v2.39H82v.41c.42,0,.7,0,1,0s.58,0,1,0v-.41h-.52v-1.6A1.24,1.24,0,0,1,84.71,158c.28,0,.46.13.46.76v2.08h-.52v.41c.43,0,.7,0,1,0s.58,0,1,0v-.41h-.53v-2" transform="translate(-45.62 -60.03)"/><path d="M90.44,160.41a1.33,1.33,0,0,1-1.11.6c-1,0-1-1-1-1.46s0-1.51,1.13-1.51a1.27,1.27,0,0,1,1,.49v1.88M90,155.84v.41c.47,0,.52,0,.52.31v1.49a2.13,2.13,0,0,0-3.26,1.48,1.83,1.83,0,0,0,2,1.82,1.89,1.89,0,0,0,1.18-.39v.39l1.5-.06v-.41c-.47,0-.53,0-.53-.31v-4.8Z" transform="translate(-45.62 -60.03)"/><path d="M101.88,158.34c.05-.13.07-.17.52-.17v-.41a4.17,4.17,0,0,1-.65,0,6.35,6.35,0,0,1-.75,0v.41a1,1,0,0,1,.42.07.81.81,0,0,1,0,.11l-.87,2-.94-2.18H100v-.41c-.36,0-.73,0-.89,0s-.58,0-.81,0v.41h.45c0,.06.09.21.13.29s0,.08,0,.12l-.69,1.59-.86-2h.4v-.41c-.46,0-.59,0-1,0-.17,0-.62,0-.9,0v.41h.46l1.26,2.94a.31.31,0,0,0,.34.22c.24,0,.27-.07.34-.24l.89-2.05.89,2.05c.07.17.11.24.34.24a.32.32,0,0,0,.35-.22l1.19-2.77" transform="translate(-45.62 -60.03)"/><path d="M107.24,158.88c0-1-.6-1.17-1.31-1.17a1.68,1.68,0,0,0-1.44.73v-2.67l-1.45.07v.41c.47,0,.53,0,.53.31v4.32H103v.41c.43,0,.71,0,1,0s.57,0,1,0v-.41h-.52v-1.6a1.24,1.24,0,0,1,1.27-1.24c.28,0,.46.13.46.76v2.08h-.52v.41c.43,0,.71,0,1,0s.58,0,1,0v-.41h-.53v-2" transform="translate(-45.62 -60.03)"/><path d="M108.59,157.77v.41c.45,0,.5,0,.5.31v2.39h-.52v.41c.46,0,.55,0,1,0s.55,0,.94,0v-.41H110v-3.17l-1.43.06m1.5-1.37a.64.64,0,0,0-.64-.63.64.64,0,0,0,0,1.27A.64.64,0,0,0,110.09,156.4Z" transform="translate(-45.62 -60.03)"/><path d="M112.72,155.77l-1.45.07v.41c.47,0,.52,0,.52.31v4.32h-.52v.41c.46,0,.54,0,1,0s.52,0,1,0v-.41h-.52v-5.11" transform="translate(-45.62 -60.03)"/><path d="M114.84,159.3c0-.32,0-1.29,1-1.29s1,1,1,1.29h-2.06m2.57.31c.17,0,.27,0,.27-.24a1.73,1.73,0,0,0-.48-1.25,1.92,1.92,0,0,0-1.34-.45,1.86,1.86,0,0,0-2.09,1.82c0,1,.8,1.86,2.21,1.86s1.7-.86,1.7-1-.17-.17-.22-.17-.17,0-.23.15a1.25,1.25,0,0,1-1.16.61c-1.17,0-1.21-.92-1.23-1.36Z" transform="translate(-45.62 -60.03)"/></svg>